<svg style="display:none;" xmlns="http://www.w3.org/2000/svg" xmlns:xlink="http://www.w3.org/1999/xlink">
<defs>

    <symbol id="aladwaa_logo" viewBox="0 0 195 95">
        <path fill="#EA4A24" d="M169.15 82.09c.456-3.288.71-6.643.71-10.058 0-39.935-32.373-72.308-72.31-72.308-39.934 0-72.308 32.374-72.308 72.308 0 3.415.254 6.77.712 10.058H169.15z"/>
        <path fill="#F6A61C" d="M153.005 82.09c.58-3.267.897-6.623.897-10.058 0-31.672-25.676-57.348-57.35-57.348-31.67 0-57.348 25.676-57.348 57.348 0 3.435.318 6.79.897 10.058h112.906z"/>
        <path fill="#30A449" d="M138.73 82.09c.784-3.226 1.21-6.59 1.21-10.058 0-23.41-18.978-42.387-42.39-42.387-23.41 0-42.387 18.978-42.387 42.387 0 3.468.425 6.832 1.21 10.058h82.356z"/>
        <path fill="#63C8DF" d="M123.068 82.09c1.23-3.114 1.91-6.506 1.91-10.058 0-15.147-12.278-27.427-27.427-27.427-15.145 0-27.426 12.28-27.426 27.427 0 3.552.682 6.943 1.91 10.058h51.035z"/>
        <path d="M-.484 74.41c1.067-2.514 3.384-3.287 5.996-3.054.4.035.81.008 1.213-.002.082-.002.16-.064.106-.04.388-1.596.64-3.14 1.14-4.602 1.104-3.24 5.55-6.63 9.63-6.703 4.655-.086 8.087 1.966 11.027 5.24 1.144 1.275 1.535 2.867.854 4.387-.63 1.41-1.765 2.52-3.59 2.338-.16-.016-3.742-1.11-4.79-.81 4.332.724 5.46 2.306 6.125 2.868 1.643 1.39 2.278 3.55 1.573 5.474-.686 1.87-2.46 3.053-4.616 3.05-6.027-.005-12.056.034-18.08-.085-.977-.02-2.65-.235-3.392-.894-4.578-4.308-3.266-6.995-3.192-7.17zm8.48-2.264c-1.4 0-2.605-.035-3.81.006C2.14 72.224.6 73.74.6 75.628c-.002 1.8 1.52 3.378 3.52 3.39 6.027.038 12.056.018 18.084-.04 1.934-.02 3.47-1.646 3.457-3.45-.012-1.813-1.565-3.328-3.507-3.387-1.034-.03-2.07.006-3.104-.02-1.62-.03-2.744-1.044-2.663-2.374.084-1.382 1.406-2.29 3.068-2.024 1.194.194 2.38.46 3.55.77 1.226.322 2.114-.17 2.837-1.066.743-.924.795-2.05.057-2.863-.937-1.032-2.038-2.03-3.26-2.672-4.498-2.366-10.038-.9-12.917 3.25-1.416 2.05-1.86 4.35-1.724 7.01zm186.296 6.196c0 1.46-.67 2.68-.97 3.05-2.014 2.484-5.12 2.413-7.578.38-2.425-1.997-3.074-4.272-2.972-7.27.168-4.925-.065-9.863-.103-14.795-.02-2.238.065-4.477.04-6.715-.024-2.02 1.092-3.31 2.726-4.138 1.627-.825 3.387-.79 4.81.435 1.444 1.24 4.044 3.312 4.044 6.045.002 8.998.002 14.007.002 23.006zm-3.53-13.932h.016c0-3.78.004-7.56-.006-11.34-.003-.44-.02-.907-.15-1.324-.562-1.81-2.11-2.773-3.932-2.49-1.887.296-3.102 1.667-3.107 3.633-.022 7.646-.02 15.296-.024 22.945-.005 2.287 1.55 3.978 3.646 3.968 2.058-.012 3.553-1.65 3.556-3.92.004-3.826 0-7.65 0-11.474zm-73.634 6.094c-.014-5.077 2.34-8.248 6.318-10.27 1.036-.524 2.317-.737 3.498-.78 2.91-.106 5.828-.034 9.09-.034-1.027-.95-1.784-1.72-2.61-2.4-2.535-2.086-2.85-4.606-.856-7.192 1.4-1.814 5.136-1.922 7.114-.184.644.562 1.24 1.178 1.856 1.766 2.258 2.146 2.23 4.987-.07 7.07-.195.177-.4.344-.568.84 1.172 0 2.353.1 3.513-.02 3.516-.353 5.2 2.122 6.95 4.452.335.444.364 1.192.368 1.802.03 4.095-.113 8.193.055 12.28.102 2.472-2.476 4.808-4.874 4.806-9.04-.01-18.08.072-27.12.09-13.84.022-27.68.028-41.52.016-1.15-.002-2.3-.225-3.56-.355-.48 1.16-.93 2.473-1.55 3.697-2.006 3.95-4.95 6.818-9.42 7.794-6.23 1.36-11.73.1-16.592-4.237-1.784-1.594-2.9-3.208-2.15-5.446.46-1.378 1.622-2.52 2.55-3.89-1.21-.763-1.05-2.314-1.037-3.85.03-3.238-.03-6.478.037-9.715.013-.663.24-1.464.658-1.953 2.656-3.12 5.806-5.177 10.167-5.138 3.286.03 6.543-.035 9.25 2.102 2.978 2.352 6.092 4.63 7.467 8.45.14.39.835.828 1.273.828 12.147.043 24.293.04 36.438.002.624-.002 1.43-.23 1.83-.654 1.107-1.17 2.135-1.442 3.5.126zm-45.397 1.2c-.79-2.017-1.244-3.84-2.163-5.38-4.012-6.726-13.41-8.333-19.485-3.397-1.27 1.034-2.774 2.04-2.817 3.915-.078 3.328-.07 6.658-.015 9.986.028 1.634 1.03 2.5 2.556 2.485 3.463-.027 10.388-.02 10.388-.02 1.94.062 3.144-.75 4.01-2.347.12-.216.314-.39.475-.584-1.228 4.408-6.108 7.414-10.79 6.38-1.125-.248-2.19-.77-3.275-1.194-1.493-.585-3.433.04-4.252 1.395-1.017 1.677-.867 3.495.444 4.512 6.468 5.018 19.426 5.732 23.642-5.776.603-1.648.987-3.377 1.586-5.46.66 2.97 2.64 3.057 4.862 3.047 11.966-.06 23.932-.045 35.898-.008 1.393.003 2.562-.144 3.175-1.73-.206 1.536.647 1.72 1.73 1.72 8.86-.014 17.725-.004 26.586-.02 2.563-.004 4.08-1.56 4.09-4.136.012-3.78.007-7.558.014-11.337.002-2.44-1.288-3.725-3.756-3.725-5.714.002-11.426.004-17.14.012-4.024.004-6.904 1.95-8.51 5.522-.78 1.735-.96 3.74-1.493 5.955-.737-.387-1.656-.866-2.667-1.395-.833 1.523-2.365 1.597-3.996 1.595-11.785-.024-23.572-.015-35.358-.015-1.347-.002-2.69-.002-3.738-.002zm68.136-19.018c.05-1.807-1.67-3.46-3.706-3.567-2.017-.107-4.043 1.64-4.062 3.503-.02 1.833 1.86 3.598 3.837 3.607 1.95.006 3.88-1.735 3.93-3.544zm30.968 18.59v-4.784c0-4.585-.013-9.17.01-13.754.007-1.668 1.286-3.435 2.932-4.013 1.86-.653 3.63-.497 5.152.906.493.457.938.97 1.463 1.387 1.28 1.02 1.898 2.26 1.893 3.952-.016 4.94.12 9.88.142 14.823.013 2.962-.068 5.927-.134 8.892-.04 1.744-2.253 3.822-4.1 3.83-6.16.03-12.32.033-18.48.047-1.314.003-2.46-.39-3.383-1.378-.426-.456-.902-.87-1.394-1.26-1.71-1.345-2.377-3.59-1.624-5.55.75-1.96 2.385-2.942 4.692-2.83.128.007.26-.034.557-.077.035-.5.104-1.017.104-1.53.008-5.083.004-10.163.004-15.244 0-3.346.05-3.466 2.438-5.865.078-.11.184-.72-.687-1.02-.136-.047-.75-.262-.87-.34-1.527-1.01-1.268-2.595-.154-3.928.336-.4 1.186-.52 1.146-1.01-1.995-2.433.416-3.86 2.26-4.59.875-.344 1.763-.658 2.65-.967 1.54-.536 2.522-.228 3.546 1.08.16.208.32.434.53.582 2.122 1.502 2.153 2.995.022 4.58.702 2.77-.42 4.914-3.813 5.61 1.247.666 1.553 1.287 2.078 1.883 1.322 1.495 2.298 2.71 2.282 4.75-.04 5.067.082 10.136.145 15.202.004.21.066.42.1.63l.494-.01zm-11.37 1.04c-.73 0-1.27.013-1.806-.005-2.068-.062-3.63 1.24-3.785 3.173-.142 1.737 1.545 3.493 3.54 3.507 6.03.038 12.06.03 18.09-.003 1.728-.01 3.394-1.68 3.4-3.376.024-7.602.032-15.204.003-22.81-.006-1.44-.682-2.613-2.04-3.235-2.476-1.133-5.037.543-5.05 3.33-.023 5.892-.006 11.786-.004 17.68v1.642h-5.064v-1.404c-.006-5.76-.005-11.52-.022-17.277-.005-1.438-.343-2.784-1.582-3.67-1.163-.834-2.45-.844-3.7-.19-1.436.746-1.96 2.064-1.97 3.585-.025 5.265-.01 10.53-.012 15.794.002 1.024.002 2.05.002 3.262zm1.803-28.787c-.223.04-.392.074-.562.087-1.013.082-1.5.677-1.313 1.62.18.903.835 1.217 1.74.877 1.01-.376 2.02-.737 3.03-1.102 2.468-.887 2.885-2.248 1.356-4.496l1.042-.614c.64-.377 1.57-.637 1.107-1.656-.445-.977-1.31-.958-2.194-.608-1.126.444-2.26.866-3.37 1.345-1.208.52-1.69 1.782-1.178 3.014.15.367.354.715.6 1.166.05.09-.14.34-.258.363zM43.205 67.513V79.39c0 3.626-3.865 6.076-7.063 4.298-1.525-.85-2.793-2.21-4.05-3.466-.366-.364-.4-1.167-.403-1.77-.025-8.412-.02-16.825-.018-25.24 0-2.34 1.268-4.18 3.245-4.733 2.31-.648 4.943.392 6.08 2.396 0 0 2.225 2.782 2.225 5.57-.068 3.688-.018 7.38-.018 11.067zm-10.734-2.37h-.08c0 4.268-.004 8.535.013 12.8 0 .343.08.725.25 1.015.703 1.21 2.923 2.06 4.25 1.675 1.99-.582 2.93-1.743 2.93-3.63.006-8.042.01-16.084.01-24.125 0-2.367-1.446-3.913-3.665-3.92-2.177-.008-3.693 1.583-3.7 3.92-.014 4.09-.006 8.176-.006 12.265z"/>
        <path fill="#fff" d="M7.996 72.146c-.137-2.66.307-4.96 1.725-7.005 2.88-4.15 8.42-5.616 12.92-3.25 1.222.642 2.322 1.637 3.26 2.672.736.814.685 1.94-.058 2.862-.723.9-1.61 1.39-2.837 1.067-1.17-.31-2.355-.574-3.55-.77-1.662-.267-2.982.645-3.067 2.026-.08 1.328 1.044 2.343 2.662 2.376 1.034.022 2.07-.013 3.104.02 1.942.06 3.496 1.573 3.51 3.387.014 1.805-1.524 3.43-3.458 3.447-6.028.06-12.056.08-18.085.043-2-.014-3.52-1.592-3.52-3.392 0-1.888 1.54-3.403 3.587-3.474 1.205-.042 2.41-.006 3.81-.006zm182.767-7.736c0 3.824.004 7.647-.002 11.472 0 2.27-1.496 3.91-3.554 3.92-2.1.013-3.65-1.678-3.648-3.967.006-7.647.002-15.297.023-22.945.008-1.968 1.224-3.338 3.11-3.633 1.82-.284 3.37.678 3.932 2.49.13.417.147.88.15 1.325.01 3.78.006 7.558.006 11.337h-.013zM71.73 71.703h3.735c11.785 0 23.572-.01 35.358.016 1.63.002 3.163-.07 3.996-1.595 1.01.527 1.93 1.01 2.667 1.396.532-2.216.713-4.22 1.494-5.956 1.605-3.572 4.485-5.517 8.51-5.522 5.714-.008 11.426-.008 17.14-.01 2.468 0 3.758 1.283 3.755 3.725-.007 3.78-.002 7.556-.015 11.335-.007 2.58-1.523 4.134-4.088 4.138-8.86.017-17.724.007-26.586.02-1.083 0-1.937-.185-1.73-1.72-.61 1.588-1.78 1.734-3.173 1.73-11.966-.04-23.932-.05-35.898.008-2.222.01-4.202-.078-4.862-3.05-.6 2.086-.983 3.813-1.587 5.46-4.215 11.51-17.172 10.793-23.642 5.775-1.31-1.017-1.46-2.835-.444-4.512.82-1.352 2.76-1.977 4.252-1.39 1.083.422 2.15.943 3.275 1.193 4.68 1.032 9.56-1.974 10.788-6.38-.16.192-.356.368-.474.584-.865 1.596-2.067 2.406-4.01 2.344-3.46-.112-6.923-.003-10.387.024-1.525.014-2.527-.854-2.556-2.485-.058-3.33-.063-6.66.015-9.987.044-1.877 1.548-2.883 2.82-3.915 6.074-4.937 15.472-3.33 19.484 3.394.922 1.544 1.373 3.368 2.167 5.383zm70.562-4.634c-3.524 0-6.894-.014-10.26.002-2.937.012-5.014 1.477-6.43 3.948-.682 1.188-.486 1.462.885 1.466 4.854.01 9.71.016 14.565.018.392 0 .78-.05 1.24-.078V67.07zM63.906 71.81c.012-2.85-2.863-5.347-5.82-5.152-2.94.193-5.474 2.686-5.154 5.153h10.974zM139.9 52.674c-.05 1.812-1.98 3.553-3.93 3.545-1.976-.01-3.854-1.776-3.837-3.607.02-1.863 2.046-3.612 4.062-3.506 2.036.106 3.754 1.76 3.705 3.566zm19.564 19.64V69.05c0-5.264-.015-10.53.012-15.793.01-1.52.534-2.84 1.97-3.586 1.25-.65 2.537-.64 3.7.193 1.24.886 1.577 2.232 1.582 3.67.018 5.757.017 11.517.02 17.277.002.436.002.873.002 1.403h5.065v-1.64c-.002-5.896-.02-11.788.004-17.683.01-2.785 2.57-4.462 5.05-3.33 1.355.623 2.03 1.794 2.037 3.236.03 7.605.02 15.208-.004 22.812-.006 1.696-1.672 3.366-3.4 3.376-6.03.033-12.06.04-18.088.002-1.996-.014-3.682-1.768-3.54-3.507.153-1.937 1.716-3.237 3.784-3.173.534.02 1.07.007 1.803.007zm1.432-30.224c-.516-1.232.002-2.585 1.21-3.105 1.11-.478 2.244-.9 3.37-1.346.885-.35 1.75-.37 2.194.606.464 1.02-.47 1.28-1.107 1.656-.347.205-.693.41-1.043.614 1.528 2.248 1.11 3.61-1.355 4.496-1.01.364-2.02.726-3.03 1.102-.905.34-1.562.025-1.74-.876-.187-.944.3-1.54 1.313-1.622.26-.02.88-.564.188-1.528zM32.47 65.145c0-4.09-.007-8.176.004-12.265.006-2.338 1.524-3.927 3.7-3.92 2.22.007 3.666 1.552 3.666 3.92-.002 8.04-.006 16.083-.01 24.124 0 1.888-.94 3.05-2.932 3.63-1.326.39-3.546-.465-4.25-1.676-.17-.29-.247-.674-.25-1.016-.016-4.264-.01-8.53-.01-12.798h.083z"/>
        <path d="M142.292 67.07v5.43h-1.24c-4.854 0-9.71-.006-14.564-.018-1.37-.002-1.565-.276-.886-1.463 1.417-2.47 3.494-3.937 6.43-3.95 3.367-.013 6.736 0 10.26 0zm-.81 3.646v1.334h-9.59c-1.19 0-2.385-.002-3.576-.006-.337 0-.385-.065-.217-.356.346-.607.854-.968 1.575-.972.827-.002 10.94 0 11.807 0zm-77.576 1.097H52.93c-.318-2.468 2.216-4.96 5.156-5.152 2.958-.193 5.832 2.304 5.82 5.154zm-5.732-.647h4.57c-1.276-1.4-3.1-1.375-4.57 0z"/>
    </symbol>

    <symbol id="planet_small" viewBox="0 0 128 72">
        <path id="red" d="M34.6 57.3c-1.1-1.3-2.1-2.6-2.8-4.1-.4-.7-.7-1.5-1-2.2-2.9-7.3-3.6-15.5-1.2-22.8l.9-2.4c2-8.5 7.9-15.6 15.3-20 .8-.5 1.7-.9 2.5-1.4C52.8 1.6 57.9 0 63.1-.1c.9 0 1.7 0 2.6.1 3 .1 5.9.5 8.6 1.3.9.4 1.8.7 2.7 1 2.8 1.2 5.5 2.7 7.8 4.5.8.6 1.5 1.3 2.3 1.9 2.2 1.8 4.2 3.8 5.9 6.1.6.7 1.1 1.5 1.6 2.3.6.8 1.1 1.6 1.6 2.4.5.8.9 1.7 1.3 2.6 3.7 8.8 3.9 18.9-.2 27.4-.3.7-.6 1.3-1 2-2.1 3.9-5.1 7.3-8.6 10.2-.6.5-1.2 1.1-1.8 1.6-.6.5-1.2 1-1.9 1.4-.8.6-1.6 1.1-2.4 1.6-3.3 2.1-7.1 3.7-10.9 4.5-1 .2-1.9.4-2.9.5-7.8 1.6-16 0-22.4-4.8-.8-.6-1.5-1.3-2.3-1.9-2.5-1.8-4.5-3.6-6.6-5.4-.7-.6-1.3-1.2-1.9-1.9z"/>
        <path opacity=".07" fill="#000" d="M97.4 22.1c-.4-.9-.8-1.7-1.3-2.6-.5-.8-1-1.6-1.6-2.4-.5-.8-1-1.5-1.6-2.3-1.7-2.2-3.7-4.2-5.9-6.1-.7-.7-1.5-1.3-2.3-1.9-2.4-1.8-5-3.4-7.8-4.5l-2.7-.9C73 1.1 71.8.8 70.6.6c.3.3.6.5.9.8 2.2 1.8 4.2 3.8 5.9 6.1.6.7 1.1 1.5 1.6 2.2.6.8 1.1 1.6 1.6 2.4.5.8.9 1.7 1.3 2.6 3.7 8.8 3.9 18.9-.2 27.4-.3.7-.6 1.3-1 2-2.1 3.9-5.1 7.3-8.6 10.2-.6.5-1.2 1.1-1.8 1.6-.6.5-1.2 1-1.9 1.4-.8.6-1.6 1.1-2.4 1.6-3.3 2.1-7.1 3.7-10.9 4.5-1 .2-1.9.4-2.9.5-3.2.6-6.4.7-9.6.3.1.1.3.2.4.3.8.6 1.5 1.3 2.3 1.9 6.4 4.8 14.6 6.4 22.4 4.8 1-.1 1.9-.3 2.9-.5 3.8-.8 7.5-2.4 10.9-4.5.8-.5 1.6-1 2.4-1.6.6-.5 1.3-.9 1.9-1.4.6-.5 1.2-1 1.8-1.6 3.5-2.8 6.5-6.3 8.6-10.2.3-.6.7-1.3 1-2 4.1-8.4 3.9-18.5.2-27.3z"/>
        <path opacity=".5" fill="#FFF" d="M47.6 66.5c-.7-.6-1.4-1.2-2-1.8-1.1-1.3-2.1-2.6-2.8-4.1-.4-.7-.7-1.5-1-2.2-2.9-7.3-3.6-15.5-1.2-22.8l.9-2.4c2-8.5 7.9-15.6 15.3-20 .8-.5 1.7-.9 2.5-1.4C63.9 9 69 7.5 74.1 7.4c.9 0 1.7 0 2.6.1 3 .1 5.9.5 8.6 1.3l2.7.9s.1 0 .1.1c-.4-.3-.7-.7-1.1-1-.7-.7-1.5-1.3-2.3-1.9-2.4-1.8-5-3.4-7.8-4.5l-2.7-.9C71.5.7 68.6.3 65.6.2c-.8-.2-1.7-.2-2.5-.2-5.1.1-10.2 1.6-14.8 4.5-.9.4-1.7.9-2.5 1.4-7.4 4.3-13.3 11.5-15.3 20-.3.8-.7 1.6-.9 2.4-2.4 7.3-1.7 15.5 1.2 22.8.3.8.6 1.5 1 2.2.8 1.5 1.7 2.8 2.8 4.1.6.6 1.3 1.2 2 1.8 2.2 1.7 4.2 3.6 6.6 5.4.8.6 1.5 1.3 2.3 1.9 1.9 1.4 4 2.6 6.2 3.4-1.4-1.1-2.7-2.3-4.1-3.4z"/>
        <path id="yellow" fill="currentColor" d="M127.5 24.4c-1.1-5.4-14-7.7-32.4-6.6.2.3.4.7.6 1 0 .1.1.1.1.2 7.7.4 12.7 2.1 13.3 4.9 1.3 6.1-18.4 15.4-44 20.7-25.6 5.4-47.3 4.8-48.6-1.3-.6-3 3.9-6.9 11.8-10.6v-1.2C10.2 38.1-1.3 45.5-.1 51.1 1.8 59.5 31.8 60.3 67 53c35.2-7.4 62.3-20.2 60.5-28.6z"/>
    </symbol>

    <symbol id="hamburger_menu" viewBox="0 0 31.6 30.8">
        <g>
            <path d="M2.8 5.5h26.1c1.5 0 2.8-1.2 2.8-2.8 0-1.5-1.2-2.8-2.8-2.8L2.8 0C1.2 0 0 1.2 0 2.8c0 1.5 1.2 2.7 2.8 2.7zM2.8 18.2h26.1c1.5 0 2.8-1.2 2.8-2.8 0-1.5-1.2-2.8-2.8-2.8H2.8c-1.5 0-2.8 1.2-2.8 2.8 0 1.5 1.2 2.8 2.8 2.8zM2.8 30.8h26.1c1.5 0 2.8-1.2 2.8-2.8 0-1.5-1.2-2.8-2.8-2.8H2.8C1.2 25.3 0 26.5 0 28c0 1.6 1.2 2.8 2.8 2.8z"/>
        </g>
    </symbol>

    <symbol id="user" viewBox="0 0 24 24">
        <path fill-rule="evenodd" clip-rule="evenodd" fill="#FFF" d="M22.7 19.3c-.6-.7-1.5-1.4-2.5-2.1-.2-.1-.8-.4-1.8-.8-1.2-.5-1.9-.8-2.2-1-.1 0-.1-.1-.2-.1-1.1-.7-1.1-1.9 0-3.5 2.2-3.4 2.6-6.4 1.2-8.9C16 1 14.3 0 12.1-.1 9.8 0 8.1 1 6.9 3c-1.5 2.4-1.1 5.4 1.2 8.9.7 1 1 1.9.8 2.6 0 0 0 .1-.1.1-.3.6-.9 1-1.7 1.4-2 .8-3.1 1.3-3.2 1.4-1 .6-1.8 1.3-2.5 2.1-.6.7-1 1.7-1.3 2.8-.1.5.1.8.6 1 2.2.4 6.1.7 11.3.7 3.4 0 6.3-.1 8.8-.4.6-.1 1.2-.1 1.7-.2.3-.1.4-.1.5-.1.8-.2 1.2-.5 1.1-1.1-.4-1.1-.8-2.1-1.4-2.9z"/>
    </symbol>

    <symbol id="share" viewBox="0 0 54 57">
            <path opacity=".3" fill="#000" d="M46.9 40.2c-1.9-.3-3.7 0-5.3.9-1.6.8-3.5 1-5.1.2L18 32c-.7-.4-1.2-1.1-1.2-2 0-.8.4-1.6 1.2-2l18.2-9c1.7-.9 3.8-1 5.5-.1 1.5.8 3.4 1.2 5.3.9 3.7-.6 6.6-3.6 7-7.3.7-5.6-4.1-10.2-9.7-9.4-3.2.5-5.8 2.8-6.8 5.9-.1.4-.2.9-.3 1.3-.2 1.6-1.2 3.1-2.6 3.8l-17.5 8.8c-1.4.7-3 .6-4.4-.1-1.6-.9-3.6-1.4-5.6-1-3.7.6-6.6 3.6-7 7.3-.6 5.1 3.4 9.5 8.4 9.5 1.5 0 2.9-.4 4.1-1.1 1.4-.8 3.1-.9 4.6-.2L34.6 46c1.4.7 2.4 2.1 2.6 3.8.1.5.2 1 .3 1.4 1 3.1 3.7 5.4 6.8 5.8 5.6.8 10.3-3.9 9.6-9.4-.4-3.8-3.3-6.8-7-7.4z"/>
            <path fill="#FFF" d="M46.9 37.2c-1.9-.3-3.7 0-5.3.9-1.6.8-3.5 1-5.1.2L18 29c-.7-.4-1.2-1.1-1.2-2 0-.8.4-1.6 1.2-2l18.2-9c1.7-.9 3.8-1 5.5-.1 1.5.8 3.4 1.2 5.3.9 3.7-.6 6.6-3.6 7-7.3.7-5.6-4.1-10.2-9.7-9.4-3.2.5-5.8 2.8-6.8 5.9-.1.4-.2.9-.3 1.3-.2 1.6-1.2 3.1-2.6 3.8l-17.5 8.8c-1.4.7-3 .6-4.4-.1-1.6-.9-3.6-1.4-5.6-1-3.7.6-6.6 3.6-7 7.3-.6 5.1 3.4 9.5 8.4 9.5 1.5 0 2.9-.4 4.1-1.1 1.4-.8 3.1-.9 4.6-.2L34.6 43c1.4.7 2.4 2.1 2.6 3.8.1.5.2 1 .3 1.4 1 3.1 3.7 5.4 6.8 5.8 5.6.8 10.3-3.9 9.6-9.4-.4-3.8-3.3-6.8-7-7.4z"/>
    </symbol>

    <symbol id="facbook" viewBox="0 0 14 29">
        <path d="M12.58 14.098H8.633v14.077h-5.85V14.098H0V9.125h2.782v-3.22C2.782 3.6 3.876 0 8.686 0l4.333.017v4.83H9.872C9.36 4.847 8.63 5.1 8.63 6.2v2.925h4.46l-.51 4.974z"/>
    </symbol>

    <symbol id="twitter" viewBox="0 0 24 20">
        <path d="M23.938 2.303c-.88.39-1.827.655-2.82.773 1.013-.608 1.792-1.57 2.158-2.717-.95.56-2 .97-3.118 1.19C19.262.596 17.985 0 16.573 0c-2.712 0-4.91 2.198-4.91 4.91 0 .385.04.76.126 1.12C7.705 5.824 4.086 3.87 1.664.9 1.243 1.623 1 2.467 1 3.366c0 1.704.868 3.207 2.186 4.087-.804-.025-1.562-.246-2.224-.614v.06c0 2.38 1.693 4.364 3.94 4.816-.413.113-.847.172-1.294.172-.317 0-.625-.032-.924-.09.625 1.953 2.44 3.372 4.588 3.41-1.68 1.318-3.8 2.104-6.1 2.104-.396 0-.787-.023-1.17-.07 2.172 1.395 4.754 2.208 7.527 2.208 9.032 0 13.97-7.483 13.97-13.972 0-.213-.004-.424-.013-.636.96-.692 1.792-1.556 2.45-2.54z"/>
    </symbol>

    <symbol id="right_elems" viewBox="0 0 427.7 147.3">
        <path fill="#A1662B" d="M402.3 104.5h7.8v42.8h-7.8z"/>
        <path opacity=".1" d="M405.6 104.5h4.4v42.8h-4.4z"/>
        <path fill="#30B814" d="M405.6 54.2l-22 72.3h44.1"/>
        <path opacity=".1" d="M405.6 54.2v72.3h22.1"/>
        <path fill="#30B814" d="M405.6 54.2l-20.2 46.9h40.5"/>
        <path opacity=".1" d="M405.6 54.2v46.9h20.3"/>
        <path fill="#AAE81A" d="M262.4 147.3c.1-1.3.1-2.5.1-3.8 0-37.2-35.9-67.3-80.2-67.3s-80.2 30.1-80.2 67.3c0 1.3 0 2.6.1 3.8h160.2z"/>
        <path opacity=".1" d="M182.4 76.2v71.1h80.1c.1-1.3.1-2.5.1-3.8 0-37.2-35.9-67.3-80.2-67.3z"/>
        <path fill="#AAE81A" d="M377.7 147.3c0-.7.1-1.4.1-2.1 0-20.8-20.1-37.6-44.8-37.6-24.7 0-44.8 16.8-44.8 37.6 0 .7 0 1.4.1 2.1h89.4z"/>
        <path opacity=".1" d="M333 107.5v39.7h44.7c0-.7.1-1.4.1-2.1 0-20.7-20.1-37.6-44.8-37.6z"/>
        <g>
            <path fill="#C9D7E8" d="M312.7 37.5h7.3v109.8h-7.3z"/>
            <path opacity=".2" d="M312.7 37.5h3.6v109.8h-3.6z"/>
            <path fill="#47677F" d="M290.9 45.8h68.3v-2.5L337.5 0h-67.3v4.6"/>
            <path fill="#C9D7E8" d="M291.9 43.3h67.3L337.5 0h-67.3"/>
            <g fill="#47677F">
                <path d="M326.4 20.4h18.3l-9.2-18.3h-18.3M304.9 20.4h18.3l-9.1-18.3h-18.4M283.5 20.4h18.3l-9.2-18.3h-18.3"/>
                <g>
                    <path d="M336.8 41.2h18.3l-9.2-18.3h-18.3M315.4 41.2h18.3l-9.2-18.3h-18.3M293.9 41.2h18.3L303 22.9h-18.3"/>
                </g>
            </g>
            <path opacity=".16" fill="#FFF" d="M335.5 2.1h-18.3l9.2 18.3M314.1 2.1h-18.4l9.2 18.3M292.6 2.1h-18.3l9.2 18.3M303 22.9h-18.3l9.2 18.3M324.5 22.9h-18.3l9.2 18.3M345.9 22.9h-18.3l9.2 18.3"/>
        </g>
        <g>
            <path fill="#C9D7E8" d="M349.4 62.8h5.6v84.5h-5.6z"/>
            <path opacity=".2" d="M349.4 62.8h2.8v84.5h-2.8z"/>
            <path fill="#47677F" d="M332.6 69.2h52.6v-2l-16.7-33.3h-51.8v3.6"/>
            <path fill="#C9D7E8" d="M333.4 67.2h51.8l-16.7-33.3h-51.8"/>
            <g fill="#47677F">
                <path d="M360 49.6h14l-7-14.1h-14.1M343.4 49.6h14.1l-7-14.1h-14.1M326.9 49.6H341l-7.1-14.1h-14.1"/>
                <g>
                    <path d="M368 65.6h14.1L375 51.5h-14.1M351.5 65.6h14.1l-7.1-14.1h-14.1M335 65.6h14l-7-14.1h-14.1"/>
                </g>
            </g>
            <path opacity=".16" fill="#FFF" d="M367 35.5h-14.1l7.1 14.1M350.5 35.5h-14.1l7 14.1M333.9 35.5h-14.1l7.1 14.1M342 51.5h-14.1l7.1 14.1M358.5 51.5h-14.1l7.1 14.1M375 51.5h-14.1l7.1 14.1"/>
        </g>
        <g>
            <path fill="#A1662B" d="M78.7 118.3h5.7v29h-5.7z"/>
            <path opacity=".1" d="M81.2 118.3h3.2v29h-3.2z"/>
            <path fill="#77AB07" d="M81.2 84.3l-16.1 49h32.1"/>
            <path opacity=".1" d="M81.2 84.3v49h16"/>
        </g>
        <g>
            <path fill="#A1662B" d="M102.8 112.5h6.3v34.7h-6.3z"/>
            <path opacity=".1" d="M105.5 112.5h3.6v34.7h-3.6z"/>
            <path fill="#30B814" d="M105.5 71.8l-17.9 58.7h35.8"/>
            <path opacity=".1" d="M105.5 71.8v58.7h17.9"/>
            <path fill="#30B814" d="M105.5 71.8l-16.5 38h32.9"/>
            <path opacity=".1" d="M105.5 71.8v38h16.4"/>
        </g>
        <g>
            <path fill="#0AB500" d="M30.5 122.3s-5.8.5-8.8 3.9c-2.5 2.8-.6 6.7-.6 6.7s4.1 1.4 6.6-1.4c3.1-3.4 2.8-9.2 2.8-9.2z"/>
            <path opacity=".1" d="M30.5 122.3L21.1 133s4.1 1.4 6.6-1.4c3.1-3.5 2.8-9.3 2.8-9.3z"/>
            <path fill="#407519" d="M15.6 139.5c-.3.3-.8.3-1.1 0-.3-.3-.3-.8 0-1.1l7.1-7.3c.3-.3.8-.3 1.1 0 .3.3.3.8 0 1.1l-7.1 7.3z"/>
            <path fill="#0AB500" d="M0 109.2s5.6.5 8.6 3.8c2.4 2.8.6 6.5.6 6.5s-4 1.4-6.4-1.4c-3-3.2-2.8-8.9-2.8-8.9z"/>
            <path opacity=".1" d="M0 109.2l9.1 10.4s-4 1.4-6.4-1.4c-2.9-3.3-2.7-9-2.7-9z"/>
            <path fill="#407519" d="M14.5 126c.3.3.8.3 1.1 0 .3-.3.3-.8 0-1.1l-6.9-7.1c-.3-.3-.8-.3-1.1 0-.3.3-.3.8 0 1.1l6.9 7.1z"/>
            <path fill="#0AB500" d="M3.1 126s3.6-.3 5.8 1.6c1.8 1.5 1 4.1 1 4.1s-2.4 1.3-4.2-.2c-2.2-1.9-2.6-5.5-2.6-5.5z"/>
            <path opacity=".1" d="M3.1 126l6.8 5.7s-2.4 1.3-4.2-.2c-2.2-1.9-2.6-5.5-2.6-5.5z"/>
            <path fill="#407519" d="M14 135.2c.2.2.5.1.7-.1.2-.2.1-.5-.1-.7l-5.1-3.8c-.2-.2-.5-.1-.7.1-.2.2-.1.5.1.7l5.1 3.8z"/>
            <path fill="#0AB500" d="M27.6 114.6s-3.9-.5-6.4 1.4c-2 1.5-1.3 4.4-1.3 4.4s2.5 1.5 4.6 0c2.5-1.9 3.1-5.8 3.1-5.8z"/>
            <path opacity=".1" d="M27.6 114.6l-7.7 5.8s2.5 1.5 4.6 0c2.5-1.9 3.1-5.8 3.1-5.8z"/>
            <path fill="#407519" d="M15.4 124c-.2.2-.6.1-.7-.1-.2-.2-.1-.6.1-.7l5.7-3.8c.2-.2.6-.1.7.1.2.2.1.6-.1.7l-5.7 3.8z"/>
            <g>
                <path fill="#0AB500" d="M14.1 103.1s-2.9 3.7-2.7 7.7c.2 3.2 3.3 4.5 3.3 4.5s3-1.6 2.8-4.8c-.1-3.9-3.4-7.4-3.4-7.4z"/>
                <path opacity=".1" d="M14.1 103.1l.6 12.1s3-1.6 2.8-4.8c-.1-3.8-3.4-7.3-3.4-7.3z"/>
            </g>
            <path fill="#407519" d="M15.4 121.3c0 .3-.3.6-.6.6s-.6-.3-.6-.6v-7.8c0-.3.3-.6.6-.6s.6.3.6.6v7.8z"/>
            <path fill="#407519" d="M15.9 147.1v-26.9c0-.6-.5-1.1-1.1-1.1s-1.1.5-1.1 1.1v26.9h2.2z"/>
            <circle fill="#FF6E30" cx="19.3" cy="123.1" r="1.8"/>
            <circle fill="#FF6E30" cx="10.1" cy="134.6" r="1.8"/>
            <circle fill="#FF6E30" cx="9.9" cy="123.3" r="1.8"/>
            <circle fill="#FF6E30" cx="21.1" cy="136.4" r="1.8"/>
        </g>
        <g>
            <path fill="#5B8500" d="M291.2 129.3h2.6V147h-2.6z"/>
            <path opacity=".1" d="M292.5 129.3h1.3V147h-1.3z"/>
            <path fill="#FF7214" d="M306.4 120.8s-4.8.7-8.9 3.2c.4-.8.7-1.8.8-2.7.5-4.5-4.9-10-5.8-10.9-1 .9-6.3 6.4-5.8 10.9.1 1 .4 1.9.8 2.7-4.2-2.4-8.9-3.2-8.9-3.2s-.7 6.5 2.8 10c2.6 2.6 8.1 2.5 10.8 2.3h.8c2.7.2 8.2.3 10.8-2.3 3.4-3.4 2.6-10 2.6-10z"/>
            <path opacity=".1" d="M306.4 120.8s-4.8.7-8.9 3.2c.4-.8.7-1.8.8-2.7.5-4.5-4.9-10-5.8-10.9v22.8h.4c2.7.2 8.2.3 10.8-2.3 3.5-3.5 2.7-10.1 2.7-10.1z"/>
        </g>
        <g>
            <path fill="#A1662B" d="M236.2 117.5h3.7v28.8h-3.7z"/>
            <path opacity=".1" d="M236.2 117.5h2.1v28.8h-2.1z"/>
            <path fill="#A1662B" d="M253.3 111.7h2.5l8.2-16.5h-2.5"/>
            <path opacity=".1" d="M253.3 111.7h1.4l8.2-16.5h-1.4"/>
            <circle fill="#0AB500" cx="265.9" cy="90.5" r="11.1"/>
            <path opacity=".1" d="M265.9 79.4v22.2c-6.1 0-11.1-5-11.1-11.1s4.9-11.1 11.1-11.1z"/>
            <g>
                <circle fill="#0AB500" cx="238.1" cy="108.9" r="19.2"/>
                <path opacity=".1" d="M238.1 89.7v38.4c-10.6 0-19.2-8.6-19.2-19.2s8.6-19.2 19.2-19.2z"/>
            </g>
            <g>
                <circle fill="#0AB500" cx="216.4" cy="98.3" r="13.2"/>
                <path opacity=".1" d="M216.4 85.2v26.3c-7.3 0-13.2-5.9-13.2-13.2.1-7.2 6-13.1 13.2-13.1z"/>
            </g>
        </g>
    </symbol>

    <symbol id="rocket" viewBox="0 0 126.3 243.2">
        <path fill="#0090FF" d="M100.2 212.2c-1.4 4.1-3 8-4.7 11.6l-64.4.5c-1.7-3.6-3.4-7.5-4.9-11.6l74-.5z"/>
        <path fill="#F15A29" d="M110.5 154s37.4 37-2.7 88.5c0 0-3.1-21.3-8.3-28.7 6.5-16.4 10.7-37 11-59.8z"/>
        <path fill="#F77552" d="M110 164.8c.2-3.6.4-7.2.5-10.9 0 0 37.4 37-2.7 88.5 0 0-.1-.8-.3-2 23.8-35.9 10.6-63.8 2.5-75.6z"/>
        <path fill="#F15A29" d="M15.2 154.8s-36.7 37.6 4.2 88.4c0 0 2.7-21.3 7.9-28.8-7-16.2-11.5-36.8-12.1-59.6z"/>
        <path fill="#D8451D" d="M15.4 228.3s5.4-13 8.6-22.3c1 2.9 2 5.7 3.2 8.3-5.1 7.5-7.9 28.8-7.9 28.8C2.1 221.8-1.3 202.8.4 187.9c1.6 12 3.1 25.6 15 40.4z"/>
        <path fill="#E6E7E8" d="M26.2 212.9c-8.4-22.5-13.3-52.5-11.8-85.4C17.5 56.6 61.5 0 61.5 0s45.5 55.8 49.3 126.7c1.8 32.9-2.6 62.9-10.6 85.6l-74 .6z"/>
        <path fill="#2B3990" d="M110.8 126.8c.3 5.2.4 10.4.4 15.4l-97 .8c-.1-5.1 0-10.2.2-15.4l96.4-.8z"/>
        <path fill="#F15A29" d="M36.2 43.3C48.5 16.7 61.5 0 61.5 0s13.4 16.5 26.3 42.9l-51.6.4z"/>
        <path fill="#0090FF" d="M110.8 126.8c.3 5.2.4 10.4.4 15.4l-97 .8c-.1-5.1 0-10.2.2-15.4l96.4-.8z"/>
        <path opacity=".1" d="M14.4 127.5C17.5 56.6 61.5 0 61.5 0c-12 18-33.2 72.3-35.7 127.4-1.5 32.9 3.4 62.9 16.6 97l-11.4.1c-13.2-28.8-18.1-64.1-16.6-97z"/>
        <path opacity=".4" fill="#FFF" d="M106.6 126.7C103.3 65.1 70.5 12 61.5 0c0 0 45.5 55.8 49.3 126.7 1.8 32.9-2.3 68-15.2 97.2h-4.2c12.5-34.3 16.9-64.3 15.2-97.2z"/>
        <ellipse transform="matrix(-1 .00867 -.00867 -1 127.99 396.165)" fill="#F15A29" cx="63.1" cy="198.4" rx="4.2" ry="44"/>
        <path fill="#D8451D" d="M62.8 154.4c.3 0 .5.3.8.7-1.9 3.8-3.2 21.7-3.1 43.3.2 21.6 1.8 39.5 3.8 43.2-.2.5-.5.7-.7.7-2.3 0-4.3-19.7-4.5-44-.3-24.2 1.4-43.9 3.7-43.9z"/>
        <path fill="#F77552" d="M65.1 198.3c-.2-20.2-1.6-37.1-3.4-42.3.4-1.1.7-1.7 1.1-1.7 2.3 0 4.3 19.7 4.5 44 .2 24.3-1.5 44-3.8 44-.4 0-.8-.6-1.1-1.6 1.7-5.2 2.8-22.2 2.7-42.4z"/>
        <circle fill="#0090FF" cx="62.3" cy="87.5" r="21.3"/>
        <path opacity=".4" fill="#FFF" d="M82.3 87.3c-.1-11.5-9.4-20.8-20.8-21.1h.7c11.8-.1 21.4 9.4 21.5 21.1.1 11.8-9.4 21.4-21.1 21.5h-.7c11.4-.5 20.5-10 20.4-21.5z"/>
        <path opacity=".1" d="M62.1 66.2h1c-11.3.6-20.2 10-20.1 21.4.1 11.4 9.2 20.7 20.5 21.1h-1c-11.8.1-21.4-9.4-21.5-21.1-.1-11.7 9.4-21.3 21.1-21.4z"/>
        <circle fill="#BAE8F7" cx="62.3" cy="87.5" r="15.2"/>
    </symbol>

    <symbol id="cloud_1" viewBox="0 0 703 228">
        <path fill="#FFF" d="M627.7 152.3c-15.7 0-28.5 4.3-41.3 12.8C555.1 68.3 472.5 0 374.3 0c-82.5 0-153.7 48.4-193.6 121-18.5-14.2-42.7-21.3-68.3-21.3C51.2 99.6 0 145.2 0 202.1c0 8.5 1.4 17.1 4.3 25.6h698.8c-1.4-42.7-34.2-75.4-75.4-75.4z"/>
    </symbol>

    <symbol id="cloud_2" viewBox="0 0 817 228">
        <path fill="#FFF" d="M0 226.3C10 99.6 106.7 0 224.9 0c82.5 0 153.7 48.4 193.6 121 18.5-14.2 42.7-21.3 68.3-21.3 61.2 0 112.4 45.5 112.4 102.5 0 8.5-1.4 17.1-4.3 25.6H0v-1.5zm744.4-72.6c-39.9 0-74 32.7-74 74H817c1.4-41.3-31.4-74-72.6-74z"/>
    </symbol>

    <symbol id="cloud_3" viewBox="0 0 606 228">
        <path fill="#FFF" d="M0 226.3C10 99.6 106.7 0 224.9 0c82.5 0 153.7 48.4 193.6 121 18.5-14.2 42.7-21.3 68.3-21.3 61.2 0 112.4 45.5 112.4 102.5 0 8.5-1.4 17.1-4.3 25.6H0v-1.5z"/>
    </symbol>

    <symbol id="balloon" viewBox="0 0 118 72">
        <path fill="#536A75" d="M19.9 22.3c-.4 0-.9-.3-1-.7L11.5 1.5c-.1-.3-.1-.7.1-1 .3-.3.6-.5 1-.5h11.2c.4 0 .7.2.9.5l10.7 15.9c.2.3.2.7.1 1-.1.3-.4.6-.7.7l-14.7 4.2h-.2z"/>
        <path opacity=".1" d="M24.7.5c-.2-.3-.5-.5-.9-.5h-5.4l7.5 20.6 8.9-2.6c.3-.1.6-.3.7-.7.1-.3.1-.7-.1-1L24.7.5z"/>
        <path fill="#536A75" d="M20.6 38.1c-.3 0-.6.2-.8.5l-5.5 15.1c-.1.2-.1.5.1.7.2.2.4.3.7.3h8.4c.3 0 .5-.1.7-.4l8.1-11.9c.1-.2.2-.5.1-.7-.1-.2-.3-.4-.5-.5l-11-3.2c-.2.1-.2.1-.3.1z"/>
        <path opacity=".1" d="M24.2 54.5c-.2.2-.4.4-.7.4h-4l5.6-15.5 6.7 1.9c.3.1.5.3.5.5.1.2.1.5-.1.7l-8 12z"/>
        <g>
            <path fill="#536A75" d="M51.4 53v13.6c0 4.5 2.1 5.7 5.7 5.7h25.4c2.3 0 3.9-.8 6.3-5.1 2.5-4.4 6.4-11.3 6.4-11.3L51.4 53z"/>
            <path fill="#F1F3DC" d="M117.5 32.1c0 15-9.3 27.1-38.6 27.1s-71-15.6-71-27.1C7.9 20.5 49.6 5 78.9 5c29.2-.1 38.6 12.1 38.6 27.1z"/>
            <path opacity=".1" fill="#536A75" d="M116.7 32.1c0 11.5-9.3 20.9-38.6 20.9s-71-12-71-20.9 41.7-20.9 71-20.9c29.3 0 38.6 9.3 38.6 20.9z"/>
            <path fill="#ECEDDF" d="M117.5 32.1c0 4.5-9.3 8.1-38.6 8.1s-71-4.7-71-8.1 41.7-8.1 71-8.1c29.2-.1 38.6 3.6 38.6 8.1z"/>
            <path opacity=".8" fill="#F5388A" d="M108.3 12.3c-1.8 5.8-2.8 12.6-2.8 19.8s1 14 2.8 19.8c6.6-5 9.1-12 9.1-19.8s-2.5-14.9-9.1-19.8z"/>
            <path fill="#536A75" d="M39.6 32.1c0 2.3-3.4 4.2-14 4.2S0 33.9 0 32.1c0-1.8 15.1-4.2 25.7-4.2s13.9 1.9 13.9 4.2z"/>
            <g fill="#FFECA6">
                <circle cx="59.3" cy="64.6" r="2.6"/>
                <circle cx="69.1" cy="64.6" r="2.6"/>
                <circle cx="78.8" cy="64.6" r="2.6"/>
            </g>
            <path opacity=".1" d="M8.2 34.7c.3.3.5.6.9.9 7.1 11 43.4 23.5 69.8 23.5 15 0 24.7-3.2 30.6-8.3.4-.3.7-.6 1.1-1 .3-.3.6-.7 1-1l.1-.1c.3-.3.6-.7.8-1 0 0 0-.1.1-.1.3-.3.5-.7.7-1l.1-.1c.2-.3.4-.7.7-1 0-.1.1-.1.1-.2.2-.3.4-.7.6-1 0-.1.1-.1.1-.2.2-.3.3-.7.5-1 0-.1.1-.1.1-.2.1-.3.3-.7.4-1 0-.1.1-.2.1-.3.1-.3.2-.7.3-1 0-.1.1-.2.1-.3.1-.3.2-.7.3-1 0-.1.1-.2.1-.3.1-.3.1-.6.2-1 0-.1.1-.3.1-.4.1-.3.1-.6.2-1 0-.1 0-.3.1-.4 0-.3.1-.6.1-1v-.4c0-.3 0-.7.1-1v-.4V32H0c0 .9 3.5 1.9 8.2 2.7zM51.4 64.6v2c0 4.5 2.1 5.7 5.7 5.7h25.4s3.9-.8 6.3-5.1c.4-.8.9-1.7 1.5-2.6H51.4z"/>
        </g>
    </symbol>

    <symbol id="shootingStar" viewBox="0 0 68 69">
        <path fill="#FFF" d="M67.2 68.7c-3 .1-5.6-1.2-5.7-4.2 0-.7-.2-1.3-.7-1.8C57.6 58.9 0 0 0 0s58.9 57.6 62.7 60.9c.5.4 1.1.7 1.7.7 2.8.1 4.2 2.6 4.1 5.6.2.8-.5 1.5-1.3 1.5z"/>
    </symbol>

    <symbol id="inner_artwork" viewBox="0 0 1000 494">
        <path fill="#8C8C8C" d="M961.3 494c-188.1-187-479.2-248.2-735-132.2C152.9 395 88.6 440 34.5 494h926.8z"/>
        <path opacity=".15" fill="#FFF" d="M144.7 493.6c46-39.4 98.3-73 156.3-99.3 141.3-64.1 295.1-81.6 434.6-46.1-159.8-63-345.7-56.2-514.5 20.4-70.1 31.8-132 74.4-184.6 125h108.2z"/>
        <path opacity=".1" d="M682.4 493.6h280.8C858 388.7 720.3 323.2 574.6 306.1c36.6 46.7 68.4 98.4 93.9 154.9 5 10.8 9.6 21.7 13.9 32.6z"/>
        <path opacity=".1" d="M854.4 493.6h105.4C827.6 363.8 645.4 295.5 460.4 306.3c148.1 13.8 288.6 79.7 394 187.3z"/>
        <g>
            <path fill="#ABABAB" d="M674.6 329.4c-30.9 1.3-59.6-5.1-86.3-18.6l15.3-16.3 63.8 13.7 7.2 21.2z"/>
            <path opacity=".1" d="M667.3 308.6l-37.1-8 7.3 21c-8.7.4-17.3 0-25.7-.8 19.9 6.7 40.8 9.8 62.8 8.9l-7.3-21.1z"/>
            <path opacity=".2" fill="#FFF" d="M603.5 314.3l15.3-16.2-15.3-3.3-15.3 16.2c15.8 8 32.2 13.5 49.5 16.4-11.8-3.2-23.1-7.5-34.2-13.1z"/>
            <ellipse transform="rotate(12.157 635.28 301.63)" fill="#636363" stroke="#ABABAB" stroke-width="1.49" stroke-miterlimit="10" cx="635.4" cy="301.7" rx="31.7" ry="3"/>
            <path fill="#ABABAB" d="M924.1 461.2c-32.9-10.9-60.6-28.9-83.2-53.7l22.5-11.1 61.5 39.7-.8 25.1z"/>
            <path opacity=".1" d="M924.7 436.4l-35.8-23.1-.7 24.9c-9.3-3.1-18.2-6.8-26.6-11.1 18.2 14.9 38.9 26.4 62.4 34.2l.7-24.9z"/>
            <path opacity=".2" fill="#FFF" d="M855.5 417.1l22.4-10.9-14.7-9.5-22.4 10.9c13.4 14.6 28.5 26.9 45.4 36.8-11.1-7.9-21.4-17-30.7-27.3z"/>
            <ellipse transform="rotate(32.84 893.974 416.774)" fill="#636363" stroke="#ABABAB" stroke-width="2.399" stroke-miterlimit="10" cx="894" cy="416.8" rx="35.5" ry="6.9"/>
            <ellipse transform="rotate(24.792 703.436 401.638)" fill="#636363" stroke="#ABABAB" stroke-width="4.556" stroke-miterlimit="10" cx="703.4" cy="401.6" rx="35" ry="25.3"/>
            <path opacity=".2" fill="#FFF" d="M693.7 423.1c-15.6-7.2-24.8-21.4-22.5-33.3-.8 1.1-1.5 2.2-2.1 3.5-5.9 12.7 3.6 29.6 21.1 37.7 17.5 8.1 36.5 4.4 42.4-8.3.6-1.4 1.1-2.8 1.4-4.3-7.5 9.7-24.5 12-40.3 4.7z"/>
            <path opacity=".2" d="M671.6 386.9c-1 2.2-1.5 4.4-1.7 6.7 7.2-10.4 24.6-13 40.8-5.5 14.6 6.7 23.5 19.5 22.8 30.9.6-.9 1.2-1.8 1.6-2.8 5.9-12.7-3.6-29.6-21.1-37.7-17.5-8-36.5-4.3-42.4 8.4z"/>
            <path fill="#636363" stroke="#ABABAB" stroke-width="4.766" stroke-miterlimit="10" d="M280.9 453.3c-3.1-13.6 5.6-28.1 19.4-32.4 13.8-4.3 27.5 3.2 30.6 16.8 3.1 13.6-5.6 28.1-19.4 32.4s-27.5-3.2-30.6-16.8z"/>
            <path opacity=".2" fill="#FFF" d="M310.9 468.4c12.3-3.9 20.5-15.8 20-27.9.5 1.2.9 2.5 1.2 3.8 3.1 13.6-5.6 28.1-19.4 32.4s-27.5-3.2-30.6-16.8c-.3-1.5-.5-3-.6-4.5 4.6 11.2 17 16.9 29.4 13z"/>
            <path opacity=".2" d="M330.9 437.7c.5 2.3.7 4.6.6 6.9-4.3-11.6-16.9-17.7-29.6-13.7-11.5 3.6-19.4 14.2-20 25.5-.4-1-.7-2-.9-3.1-3.1-13.6 5.6-28.1 19.4-32.4 13.7-4.3 27.4 3.2 30.5 16.8z"/>
            <ellipse transform="rotate(87.755 432.51 382.022)" fill="#636363" cx="432.5" cy="382" rx="11.7" ry="12.2"/>
            <ellipse transform="rotate(87.755 404.857 373.436)" fill="#636363" cx="404.8" cy="373.4" rx="9" ry="9.4"/>
            <ellipse transform="rotate(87.755 396.012 387.73)" fill="#636363" cx="396" cy="387.7" rx="5.3" ry="5.5"/>
            <ellipse transform="rotate(87.755 408.897 396.525)" fill="#636363" cx="408.9" cy="396.5" rx="1.9" ry="2"/>
            <ellipse transform="rotate(31.452 823.965 461.764)" fill="#636363" cx="824" cy="461.8" rx="9.6" ry="9.1"/>
            <ellipse transform="rotate(31.452 812.048 444.857)" fill="#636363" cx="812.1" cy="444.9" rx="7.4" ry="7"/>
            <ellipse transform="rotate(31.452 825.416 444.847)" fill="#636363" cx="825.5" cy="444.9" rx="4.3" ry="4.1"/>
            <g>
                <path fill="#ABABAB" d="M126.2 418.8C105 447.6 78.4 469 46.9 483.3l-3.7-25.6 58.6-47.7 24.4 8.8z"/>
                <path opacity=".1" d="M102.1 410.3L68 438l24.2 8.7c-6 8.2-12.5 15.6-19.4 22.6 20.4-13.1 38.4-29.7 53.5-50.3l-24.2-8.7z"/>
                <path opacity=".2" fill="#FFF" d="M61.1 472l-3.5-25.5-14 11.4 3.5 25.5c18.6-8.4 35.5-19.4 50.6-32.8-11.4 8.3-23.6 15.5-36.6 21.4z"/>
                <ellipse transform="rotate(-39.11 72.796 434.095)" fill="#636363" stroke="#ABABAB" stroke-width="1.724" stroke-miterlimit="10" cx="72.8" cy="434.1" rx="36.6" ry="3.4"/>
            </g>
            <g>
                <path fill="#C9C9C9" d="M577.4 494c-2.3-10-9.3-18-18.8-20.9-13.5-4.2-26.9 3.6-30 16.9-.3 1.2-.4 1-.5 4h49.3z"/>
                <path fill="#636363" d="M573.4 494c-1.9-8-7.8-14.8-15.8-17.3-11.3-3.5-22.5 2.9-25.1 14-.2 1-.4 1.3-.4 3.3h41.3z"/>
                <path opacity=".2" d="M533.3 493.6c4.3-7.7 13.7-11.5 23.1-8.6 4.9 1.5 9 4.6 11.9 8.6h5.1c-1.9-7.6-7.8-14.2-15.8-16.7-11.3-3.5-22.5 2.6-25.1 13.7-.2 1-.4 2-.4 3h1.2z"/>
            </g>
        </g>
        <g>
            <path opacity=".3" d="M479.4 325.6c-24.7 0-43.6 5.9-31.8 8 11.8 2.1-54 4.3-50.2 10.5 3.7 6.2 58.3-.8 80.9-2 22.6-1.1 62.4-1.6 63.3-9.6.9-8-30.6-6.9-62.2-6.9z"/>
            <path fill="#A1A1A1" d="M437.9 129.1c-15.5-.4-42.5-7.3-45.1 7.6-2.6 14.9-3.4 76.1 12.5 93.4 15.9 17.3 38.7 16.4 58.8-1.2 20.1-17.7-26.2-99.8-26.2-99.8z"/>
            <path fill="#878787" d="M438.3 129.8c-10.8 2.1-22.2 2.7-25.6 13.2-3.8 13.8 5.5 30-2.2 45.4-.6 1.4-.4 3.4 1 4.7 1.4 1.3 4.1 1.1 4.8 1.7 3 4.5.8 11.4-.9 15.6-3.2 9.1-3.2 19.8 1.4 28.6 14.4 7.2 31.6 3.6 47.3-10.1 19.1-16.8-21.5-91.4-25.8-99.1z"/>
            <path fill="#BBB" d="M408.2 138.5c1.6-5.5 16.1-30.9 21.3-33-12.5-1-37.3 5.8-39 15.5-2.6 14.9-1.1 91.7 14.8 109 3.2 3.4 6.6 6.1 10.2 8.1-1.5-2.7-2.7-5.5-3.6-8.4-7.9-31.1-10-60.9-3.7-91.2z"/>
            <path fill="#D8D8D8" d="M405.9 123.4c-6.4-1.5-9.7-2.2-10.3-3.2-1.3-2.1 3.8-6.3 5.1-7.2-5.2 1.4-8.7 5.9-9.1 11-.4 5.7-1.1 30.8 1.2 48.9.7-20.5-2.8-37.5 3.2-47.4 2-3 5.6-1.8 9.9-2.1z"/>
            <path fill="#C8C8C8" d="M368 228c-2.1 2.3-4.1 12.6-2.3 14.3 1.8 1.7 5.4.2 5.5-1.3 0-1.5 0-8.4 1.1-9.7 1.1-1.3-2.2-5.6-4.3-3.3z"/>
            <path fill="#919597" d="M367.8 227.8c-1.7 1.8-3.3 8.6-3 12.3.1 1.1.3 1.9.7 2.3 1.2 1.1 2.9.9 4.1.4 1.1-.5 1.8-1.2 1.8-1.9v-.8c0-2.1.1-7.7 1-8.8.7-.8 0-2.5-1.1-3.5-1.2-1-2.5-1-3.5 0zm-1.9 14.3c-1.5-1.5.1-11.6 2.3-13.9 1.1-1.2 2.3-.3 2.8.2 1 .9 1.5 2.3 1.1 2.8-.9 1.1-1.1 5.2-1.2 9.1v.8c0 .5-.6 1.1-1.5 1.5-1 .2-2.5.4-3.5-.5zm1.9-14.3z"/>
            <path fill="#C8C8C8" d="M370 231.6c-1.5 2.8-1.1 9.8.6 11.3 1.7 1.5 3.6 2.7 3.5-1.1-.1-3.7-.1-6 .6-8 .6-1.9-3.6-4.4-4.7-2.2z"/>
            <path fill="#919597" d="M369.7 231.5c-.8 1.5-1.1 4.1-.9 6.5.2 2.3.7 4.3 1.6 5.1 1 .9 2.2 1.8 3.1 1.4.6-.3.9-1.2.8-2.6-.1-3.6-.1-5.9.6-7.9.4-1.2-.8-2.6-2.1-3.2-1.4-.6-2.5-.3-3.1.7zm1.1 11.2c-1.6-1.4-2-8.3-.6-11 .5-.9 1.5-.8 2.4-.5 1.1.5 2.2 1.6 1.8 2.5-.7 2.1-.7 4.4-.6 8.1 0 1.6-.3 2.1-.5 2.2-.7.3-2.1-.9-2.5-1.3zm-1.1-11.2z"/>
            <path fill="#C8C8C8" d="M376.8 234.2c-1.4-1.2-3.4-.2-3.6 3-.3 3.2.9 8.1 2.4 8.8 1.5.7 2.6-1.9 2.8-6 .1-4-1.6-5.8-1.6-5.8z"/>
            <path fill="#919597" d="M374.9 233.6c-1.1.4-1.8 1.7-1.9 3.6-.3 3.3.9 8.3 2.5 9.1.4.2.8.2 1.2-.1 1-.6 1.8-2.9 1.9-6.1.2-4.1-1.5-5.9-1.6-6-.7-.6-1.4-.7-2.1-.5zm.8 12.2c-1.3-.6-2.5-5.2-2.2-8.6.1-1.6.7-2.8 1.6-3.1.5-.2 1.1-.1 1.6.3.1.1 1.2 1.4 1.4 4.2v1.4c-.1 3-.8 5.2-1.7 5.7-.2.2-.5.2-.7.1z"/>
            <path fill="#C8C8C8" d="M378.7 234.5c-.7 1.5-2.8 9.1-2.3 12 .5 3 4.6 3.3 5.6.4s3.2-10.3 4.9-11.5c1.7-1.1-7-3.5-8.2-.9z"/>
            <path fill="#919597" d="M378.5 234.4c-.6 1.4-2.6 8.3-2.4 11.6 0 .2 0 .4.1.5.3 1.5 1.4 2.5 2.8 2.6 1.5.1 2.8-.7 3.3-2.2l.5-1.5c1.1-3.3 2.9-8.8 4.3-9.8.4-.3.4-.5.3-.7-.2-.9-2.7-1.7-4.8-1.8-1.4-.1-3.5 0-4.1 1.3zm.5 14.3c-.9-.1-2.1-.7-2.4-2.2-.5-3 1.7-10.5 2.3-11.9.3-.8 1.6-1.2 3.5-1 2.3.2 4.3 1 4.4 1.5 0 0 0 .1-.1.1-1.5 1.1-3.3 6.5-4.5 10.1l-.5 1.5c-.5 1.5-1.8 1.9-2.7 1.9zm-.5-14.3z"/>
            <path fill="#C8C8C8" d="M500.9 147.6c2.8-.2 18.3 1.9 22.9 2.9 4.6 1 12.9-7.1 18-9 5-1.9 9 .3 11.7.5 2.7.3 6.5 22.1-2 25.8-8.5 3.8-12.6 8.4-17.2 10.6-4.6 2.1-19.2.7-26.8-1.3-7.6-2-13.3-29-6.6-29.5z"/>
            <path fill="#919597" d="M532.2 164.9c-9.6 4.4-24.1.5-33.5-4 1.4 7.4 4.9 15.2 8.8 16.2 7.6 1.9 22.2 3.4 26.8 1.3 4.6-2.1 8.7-6.8 17.2-10.6 7.7-3.4 5.3-21.7 2.8-25.2-5.6 8.3-13.5 18-22.1 22.3z"/>
            <path fill="#777B7D" d="M493.4 149c2.1-2.2 4.2-4.3 7.2-3.4 3 .9 8 4.6 9.3 10.1 1.3 5.5 2.1 20.6-2.7 25-5 4.4-13.8-31.7-13.8-31.7z"/>
            <path fill="#AEAEAE" d="M503.7 149.2c-1.2-1.2-2.5-2-3.5-2.3-1.9-.6-3.3.8-4.6 2.2 0 0 .3 1.1.7 2.9 1.7-2.8 4.5-3.5 7.4-2.8z"/>
            <path fill="#C8C8C8" d="M406.3 162.2s-23.1 20-26.7 27.2c-3.7 7.2-6.8 24.8-5.4 28.4 1.4 3.6 21.4 4.8 22.1 3.4.7-1.4.7-20 4.1-22 3.3-2 13.6-5.9 16.4-8.8 2.7-2.9 4.7-28.3-10.5-28.2z"/>
            <path fill="#AEAEAE" d="M393.6 190.3c.2 8.8-2.7 24.1-7.9 31.1 5.2.5 10.2.5 10.6-.2.7-1.4.7-20 4.1-22 3.3-2 13.6-5.9 16.4-8.8 1.6-1.6 2.9-10.3 1-17.6-3.2 7.7-14.7 17.3-24.2 17.5z"/>
            <path fill="#919597" d="M374.8 218.9c-3.6 1.6-11.3 10.1-9.4 12 1.9 1.9 9.3 5.8 14.1 5.9 4.8.1 17.3-.3 18.1-2.1.8-1.7.9-9-.3-12.1-1.2-3.2-22.5-3.7-22.5-3.7z"/>
            <path fill="#84888A" d="M397.3 222.6c-1-2.6-15.7-3.4-20.8-3.6 4.9 4.4 10.7 7 16.4 8.5 3.5.7 3.3 4.5 2 8.4 1.5-.3 2.5-.7 2.7-1.1.8-1.8 1-9-.3-12.2z"/>
            <path fill="#A9ACAD" d="M371.4 222.7c-2.8 2.8-5.4 6.5-4.3 7.6 1.7 1.7 8.3 5.1 12.6 5.2 1.5 0 3.7 0 6.1-.1.4-3.1 1.9-6.1 3.4-8.7-6-.1-13.1.3-17.8-4z"/>
            <path fill="#C8C8C8" d="M437.4 154.6c-7.5-1.1-15.8-3.4-16.8 7.5s3.7 36.1 4.2 42.8c.5 6.7-11.9 29.2-.9 38.3 11 9.1 37.4 13.1 51.5 8.7 14.1-4.4 37.3-17.3 37-30.8-.3-13.5-2.8-49.6-6.5-59.5-3.6-9.9-5.3-13.8-8.5-14.9-3.3-1.1-46.8 9.8-60 7.9z"/>
            <path fill="#D8D8D8" d="M496.8 151.1c-1.8-.6-17.3 2.9-31.8 5.2 1 1.5 2.9 2.4 4.5 2.3 10.3-.1 21.6-4.6 29.4 4 3.1 2.9 5.6 6.4 7.5 10.2-.6-3.4-1.3-6.3-2-8.3-3.2-8.8-4.7-12.4-7.6-13.4z"/>
            <path fill="#AEAEAE" d="M431.7 181.2c1.6-6.2-5.1-15.2 2.1-18.4 12.9-6.1 31.3-4.2 43.8-13-14.4 2.7-37 1.3-44.7.1-7.5-1.1-16-1.3-17.1 9.6-1 10.9 8.4 38.6 8.9 45.3.5 6.7-11.9 29.2-.9 38.3 6.8 5.7 19.6 9.3 31.6 10.3-29.7-5.1-30.6-47.7-23.7-72.2z"/>
            <path fill="#BBB" d="M423.8 210.4c-2.5 9.5-8.8 25.5 0 32.8 11 9.1 37.4 13.1 51.5 8.7 14.1-4.4 37.3-17.3 37-30.8-.1-4.6-.4-11.1-.9-18-24.4 18.7-61 23.5-87.6 7.3z"/>
            <path fill="#AEAEAE" d="M473.2 242.3c-8.4-13.6-25.5-7-39.2-10.1-6.9-2-3.8-11.8-5-19-1.8-.9-3.5-1.8-5.2-2.8-1.9 7-6.9 18.2-5.3 26.2.6 2.8 3 4.7 5.3 6.6 11 9.1 37.4 13.1 51.5 8.7 14.1-4.4 37.3-17.3 37-30.8v-1.4c-8.7 12.5-24.1 22.1-39.1 22.6z"/>
            <path fill="#B12525" d="M511.8 209.8c-.1-2.1-.3-4.4-.4-6.7-24.4 18.7-61 23.4-87.6 7.2-.4 1.4-.9 2.8-1.3 4.4 28.2 16.3 63.2 13 89.3-4.9z"/>
            <path fill="#7A7A7B" d="M469.5 159.7c-9.7.9-22.8 1.1-24.6 5.1-1.9 4.1-.6 12.6 0 18.5.5 5.8-1.2 17 12.9 15.5 15.2-1.6 26.7-2.5 30.8-3.8 4.1-1.3 9.5-2.3 7.6-18-1.9-15.7-2.5-19-8.1-19-5.7 0-14 1.2-18.6 1.7z"/>
            <path fill="#A1A1A2" d="M470.3 159.6c-9.4.9-22.1 1-23.9 5-1.8 4-.5 12.3 0 17.9.5 5.6-1.1 16.5 12.5 15 14.7-1.5 25.9-2.4 29.9-3.6 3.9-1.3 9.2-2.2 7.4-17.4-1.8-15.3-2.4-18.4-7.9-18.4-5.5-.2-13.6 1.1-18 1.5z"/>
            <path fill="#BBBBBC" d="M471.4 161.8c-8.2.8-19.2.9-20.8 4.3-1.6 3.5-.5 10.7 0 15.6.4 4.9-1 14.3 10.9 13.1 12.8-1.3 22.6-2.1 26-3.2 3.4-1.1 8-1.9 6.4-15.2-1.6-13.3-2.1-16-6.8-16-4.8 0-11.8 1-15.7 1.4z"/>
            <path fill="#D8D8D8" d="M485.7 161.6c-4.3 0-10.8.9-14.3 1.3-7.5.7-17.6.8-19 3.9-.9 2.1-.8 5.5-.6 8.9 1-3.7 2.8-6.8 7.1-7.4 9.7-1.2 22.5-7.8 31.3-3-.8-2.8-2-3.7-4.5-3.7z"/>
            <circle fill="#8A0000" cx="461.6" cy="172.1" r="6.1"/>
            <circle fill="#B12525" cx="462.1" cy="171.8" r="5.2"/>
            <circle fill="#8A0000" cx="463.2" cy="186.6" r="4.6"/>
            <circle fill="#B12525" cx="463.9" cy="186.4" r="3.8"/>
            <path fill="#B12525" d="M490.9 168.2c.1 1.4-.9 2.6-2.3 2.8l-8.7.8c-1.4.1-2.6-.9-2.8-2.3-.1-1.4.9-2.6 2.3-2.8l8.7-.8c1.5-.1 2.7.9 2.8 2.3z"/>
            <path fill="#6D6D6E" d="M491.8 177.7c.1 1.4-.9 2.6-2.3 2.8l-8.7.8c-1.4.1-2.6-.9-2.8-2.3-.1-1.4.9-2.6 2.3-2.8l8.7-.8c1.4-.1 2.6.9 2.8 2.3z"/>
            <g>
                <path fill="#777B7D" d="M412.2 155c-3.6.7-7.8 5.8-7.8 9s10.2 4.6 11.4 12.1c1.2 7.6-.5 13.9-1.4 15.5-.9 1.6 4.2 3.1 6.3 1 2.1-2.1 7.8-9.1 6.5-22.4-.6-5.8-4.6-17-15-15.2z"/>
            </g>
            <g>
                <path fill="#AEAEAE" d="M420.8 159.1c-1.9-2.2-4.6-3.6-8.4-3-2.9.5-6.3 4.7-6.3 7.3 0 .9 1.1 1.7 2.6 2.6.6-5.7 5.7-9.1 12.1-6.9z"/>
            </g>
            <g>
                <path fill="#777B7D" d="M378 187c-1 2.3-4.3 9.6.5 10 4.8.3 15 1.8 18.6 3.9 3.6 2.1 8.3-1.4 4.1-6.3-4.3-4.9-20.1-15.1-23.2-7.6z"/>
            </g>
            <g>
                <path fill="#AEAEAE" d="M385 186.7c-2.7-.9-5.1-.8-6 1.4-.7 1.7-3.1 6.9.3 7.2.4 0 .8.1 1.2.1-.1-3.7 1.1-7.5 4.5-8.7z"/>
            </g>
            <g>
                <path fill="#777B7D" d="M387.4 215.3c-4.1-1.3-12.6-2.6-14.3-1.1-2 1.8-3.6 7.8 1.2 8.6 4.8.8 15.7 2.5 18.8 2.3 3.1-.2 6.1-1.1 5-3.7-1.1-2.7-7.3-5-10.7-6.1z"/>
            </g>
            <g>
                <path fill="#6A6E70" d="M398.1 221.3c-1-2.3-5.9-4.3-9.4-5.5 2.2 1.1 4 2.7 3.8 5.6.1 1.3-1 2.5-2.6 3.5 1.4.1 2.5.2 3.2.1 3.1-.2 6.1-1.1 5-3.7z"/>
            </g>
            <g>
                <path fill="#777B7D" d="M526.3 145.4c-2.6-.7-4.8 2.8-5 8.9-.2 6.1 3.1 21.4 8 24.4s11.3.1 9.4-4.5c-1.9-4.6-6.5-6.4-7.5-13.7-.6-4.7 0-13.9-4.9-15.1z"/>
            </g>
            <g>
                <path fill="#AEAEAE" d="M528.4 151.1c-.3-1.7-.9-3.2-2.3-3.6-1.2-.3-2.3 1-2.6 3.4 1.4-1 3.5-1 4.9.2z"/>
            </g>
            <g>
                <path fill="#777B7D" d="M542.8 139.4c-3.1.6-5.4 3.2-3.7 9.3 1.7 6.1 10.3 22.3 16.8 19 6.4-3.3 6.9-4.3 3.6-10.7-3.4-6.4-8.6-19.1-16.7-17.6z"/>
            </g>
            <g>
                <path fill="#AEAEAE" d="M543.6 142.7c1.6-1.1 3.1-.8 4.5-.3-1.4-1.2-3.1-1.9-4.9-1.6-2.2.4-3.8 2.3-2.6 6.6 0 .2.1.3.2.5 0-1.9 1-3.6 2.8-5.2z"/>
            </g>
            <g>
                <ellipse transform="rotate(-20.95 560.423 146.2)" fill="#919597" cx="560.4" cy="146.2" rx="14.1" ry="17.7"/>
                <path fill="#84888A" d="M573.6 141.1c-3.5-9.1-12.2-14.3-19.5-11.5-3.7 1.4-6.3 4.6-7.6 8.7 2.2 2.9 5.6 4.9 9.2 5.2-2.3 7.2 3.8 12.6 3.3 19.5 2.6.8 5.3.7 7.8-.2 7.2-2.9 10.3-12.5 6.8-21.7z"/>
            </g>
            <g>
                <path fill="#C8C8C8" d="M394.9 232.6c-2.3-.6-5 1.3-4.9 5.3.1 4 1.4 7 2.9 7.1 3.2.2 3.8-3.3 4.5-5 .6-1.6.3-6.7-2.5-7.4z"/>
                <path fill="#919597" d="M391.6 233.1c-1.3 1-1.9 2.7-1.8 4.8.1 4.2 1.4 7.3 3.1 7.4 2.9.2 3.9-2.6 4.5-4.4l.3-.7c.4-1.2.4-4-.6-6-.5-1-1.2-1.6-2.1-1.8-1.2-.3-2.4 0-3.4.7zm1.4 11.7c-1.2-.1-2.5-2.7-2.7-6.9-.1-1.9.5-3.5 1.7-4.4.8-.7 1.9-.9 2.9-.7.7.2 1.3.7 1.8 1.6.9 1.8 1 4.5.6 5.6l-.3.8c-.7 1.8-1.5 4.2-4 4z"/>
            </g>
            <g>
                <path fill="#777B7D" d="M436.4 337c-11.9 1.6-34-17.5-32.6-36.5-2.2 2.4-6.1 7-5.3 11.4 2 10.3 12.8 23.7 20.6 27.6 7.1 3.5 23.1 6.9 25.3-9.6-.7 3.2-3.1 6.5-8 7.1z"/>
                <path fill="#C8C8C8" d="M422.9 246c.6 6.5 4.8 23.6 1.3 28.6-3.5 5.1-9.1 17.4-10.9 18.2-1.7.7-12.4 4.9-10.5 14.7 1.9 9.8 12 23 19.5 26.7 7.5 3.7 24.7 9.2 23.6-13.7-.5-11.8-2.9-7.3 4.4-17.7 7.4-10.4 13-17.1 14.7-23.8 1.6-6.7 1.3-15.7 2.1-21.5.7-5.8-45.9-28.3-44.2-11.5z"/>
                <path fill="#D8D8D8" d="M430.9 308.3c13.8 3.8 26.4-16.6 28.3-28.2 1.1-8.4 4.3-24.6-1.3-30.7-.8-.5-1.6-.9-2.5-1.4 2.4 19.5-8.6 48.6-24.5 60.3z"/>
                <path fill="#BBB" d="M422.9 246c.6 6.5 4.8 23.6 1.3 28.6-3.5 5.1-9.1 17.4-10.9 18.2-1.7.7-12.4 4.9-10.5 14.7.8 4 3 8.7 5.8 13-1.6-4.9-2-10.1-.2-15.3 3.4-9.7 12.8-.9 17.2 4.2-1.1-6.7-.8-18 1.5-24.9 1.7-4.2 7.8-4.6 11.3-2.2-4.5-5.8-12-17-6.4-23.5 6.4-8.4 16.6-10.3 26.7-8.9-13.2-7.7-37-16-35.8-3.9z"/>
                <path fill="#D8D8D8" d="M421.9 320.4c3.1 5.9 7.1 14.4 15 11.8 3.8-1.1 4.4-4.5 4.6-8-5.9 3.3-14.4.8-19.6-3.8z"/>
                <path fill="#777B7D" d="M422.7 253c-2.8-.4-8.7-8.8-2.5-12.9 6.2-4 19.2-5.7 29.2-3.9 12.9 2.4 25.4 12.2 21.7 20.7-3.7 8.6-8.7-7.1-27-8.1-14.8-.6-18.5 4.7-21.4 4.2z"/>
                <path fill="#A1A1A1" d="M449 237.9c-8.8-1.6-20.3-.2-25.8 3.4-1 .7-1.7 1.5-2.1 2.3 6-3.2 14.2-3.6 20.8-3.1 8.9.3 17.9 3.2 25.4 8.4-2.9-5.1-10.5-9.6-18.3-11z"/>
                <path fill="#777B7D" d="M439.7 278c11.1 2.5 23.6-.8 25.7-.9 2.2-.2 2.7 5.4 0 8-3.3 3.1-10.4 4.2-20.1 3.1-9.7-1.1-20.2-9.4-22.2-11.3-2-2 0-7.4 2.5-6.7 2.6.7 9 6.7 14.1 7.8z"/>
                <g>
                    <path fill="#777B7D" d="M417.3 287.6c2.9 3.7 5.6 14.9 11.6 17.9 8.3 4.1 14.2 2 17.2 1.5s.7 6.3-1.3 7.6c-2 1.3-17.8 3.1-24.7-5.1-6.9-8.2-9.1-16.6-8.1-18.8 1.1-2.2 4.5-4 5.3-3.1z"/>
                </g>
            </g>
            <g>
                <path fill="#C8C8C8" d="M480.8 253.4c2.7 6.5 5 23.5 5.3 29.8.3 6.3-1.8 19.3-3.1 24.5-1.3 5.2-4.3 23.6 4.2 26.2 8.5 2.6 44 4.3 47.3-9 3.3-13.3-10.5-20.2-15-19.4 0 0 3.1-22.7 2.9-28.6-.3-6-2.9-36.8-10.9-40.9-8-4.3-30.7 17.4-30.7 17.4z"/>
                <path fill="#D8D8D8" d="M509.7 306c4.8-2.3 7.8-5.8 9.6-10 .9-5.6 1.3-15.7 1.1-18.7-.3-6-2.9-36.8-10.9-40.9-2.4-1.2-6.1-.2-10.1 2 16.5 14.8 13.3 47.3 10.3 67.6z"/>
                <path fill="#BBB" d="M489.9 316.6c.6-2.7 5.4-.9 6-2.3.6-2.1-4.1-1.2-4.9-3.2-3.2-10.7-1.5-25.2 7.7-32.3-10.7 1.8-10.2-15.3-7.2-22.2 3.9-8.2 15.3-13 18.4-21.3-9-1.2-29.1 18-29.1 18 2.7 6.5 5 23.5 5.3 29.8.3 6.3-1.8 19.3-3.1 24.5-1.3 5.2-4.3 23.6 4.2 26.2 5.2 1.6 20.2 2.8 32 .6-8-.4-16-2.5-23.4-4.6-4.7-1.1-7.7-7.7-5.9-13.2z"/>
                <path fill="#D8D8D8" d="M516.4 320.8c6 5 12.6.8 15.8-5-1.6-3.2-4.4-5.6-7.1-7.2-.8 5.2-4 9.9-8.7 12.2z"/>
                <path fill="#777B7D" d="M482.2 327.6c.6 4.2 2.1 7.7 5.4 8.8 8.4 2.6 43.3 4.4 46.6-9 .2-.7.3-1.4.4-2.1-16 9.1-36.1 10.9-52.4 2.3zM511.9 222.1s-9.5 13-17.3 19.2c-7.8 6.2-16.6 8.3-17.1 10.8-.6 2.5 2.3 9 16.1 1.2s18.5-12.5 21-17.1c2.1-4 2.2-10-2.7-14.1z"/>
                <path fill="#A1A1A1" d="M512.1 224.4s-5.8 7.9-11.2 12.9c2.4-1.9 4.7-3.9 7.3-5.7 1.5-.6 3-1.2 4.5-.7 1.2.5 1.8 1.4 2.1 2.4.8-2.9.3-6.4-2.7-8.9z"/>
                <path fill="#777B7D" d="M485.2 274.2c4.3 1.6 12.1 1.9 23.3-2.2 11.2-4.1 14.4-7.5 16.4-1.6 2.1 5.9-1.7 9.4-7.3 10.8-5.6 1.5-21.9 5.2-30.8 2.6-8.8-2.7-1.6-9.6-1.6-9.6z"/>
                <g>
                    <path fill="#777B7D" d="M504.1 307.6c-8.9 1.4-18.4-1.6-20-3.9 0 0-8.1 6.1-2.5 10 5.6 3.9 28.3 2.9 35.9-2.2 7.6-5.1 4.8-9.9 3-10.7-.1 0-6.3 5.1-16.4 6.8z"/>
                </g>
            </g>
            <g>
                <ellipse transform="matrix(-1 -.01 .01 -1 1120.705 665.982)" opacity=".5" cx="562" cy="330.2" rx="5.6" ry="2"/>
                <path fill="#474747" d="M564.3 328.7c0 1.6-1 2.9-2.2 2.9-1.2 0-2.2-1.3-2.2-2.9L556.3 2.9c0-1.6 1-2.9 2.2-2.9 1.2 0 2.2 1.3 2.2 2.9l3.6 325.8z"/>
                <path fill="#B1B1B1" d="M562.8 328.8c.1 0 .5-127.8-.2-213.9C562 28.7 559.4 3 559.3 3c-.1 0 1.6 25.8 2.2 111.9.6 86.1 1.2 213.9 1.3 213.9z"/>
                <path fill="#E5E5E5" d="M560.9 8.4c-1.6 0-3.3-.2-4.8 0l.1 6.9c1.6-.4 3.2-.3 4.8 0l-.1-6.9zM561.3 77.4c-1.8-.5-3.5-1.2-5.2-.3l.1 7.9c1.7 0 3.4-.3 5.1-.7v-6.9z"/>
                <path fill="#E5E5E5" d="M674.3 83.5c-44.4-5.2-92.2 10.6-113.4 1.5l-1-76.7c20 11.1 69-7.4 113.4-1.5-3 25.9 4.4 57.7 1 76.7z"/>
                <g opacity=".9">
                    <path fill="#EA4A24" d="M649.1 56.5c-1.4-15.9-15.2-28.1-31.3-27.4-16.4.7-29.2 14.4-28.9 30.7l60.2-3.3z"/>
                    <path fill="#F5A51C" d="M642.9 56.9c-1.2-12.5-12.1-22-24.8-21.5-12.9.5-23 11.3-22.9 24.1l47.7-2.6z"/>
                    <path fill="#30A449" d="M636.6 57.2c-1.1-9.1-9-16-18.3-15.6-9.5.4-16.8 8.2-16.9 17.5l35.2-1.9z"/>
                    <path fill="#62C8E0" d="M630.4 57.6c-.9-5.7-5.9-10-11.8-9.7-6 .3-10.7 5.1-10.9 11l22.7-1.3z"/>
                    <g>
                        <g fill-rule="evenodd" clip-rule="evenodd">
                            <path d="M578.3 60c.4-1.1 1.4-1.4 2.4-1.4h.5s.1 0 0 0c.1-.7.2-1.3.4-1.9.4-1.4 2.2-2.9 3.9-3 1.9-.1 3.4.7 4.7 2 .5.5.7 1.2.4 1.8-.2.6-.7 1.1-1.5 1-.1 0-1.6-.4-2-.3 1.8.2 2.3.9 2.6 1.1.7.5 1 1.4.8 2.3-.3.8-1 1.3-1.9 1.4l-7.5.3c-.4 0-1.1-.1-1.4-.3-1.9-1.8-1.4-2.9-1.4-3zm3.5-1.1c-.6 0-1.1 0-1.6.1-.9.1-1.5.7-1.4 1.5 0 .7.7 1.4 1.5 1.4l7.5-.3c.8 0 1.4-.7 1.4-1.5s-.7-1.4-1.5-1.3h-1.3c-.7 0-1.2-.4-1.2-.9 0-.6.5-1 1.2-.9.5.1 1 .1 1.5.3.5.1.9-.1 1.2-.5.3-.4.3-.9 0-1.2-.4-.4-.9-.8-1.4-1.1-1.9-.9-4.2-.2-5.3 1.6-.6.7-.7 1.7-.6 2.8zM659.5 58.2c0 .6-.2 1.1-.3 1.3-.8 1.1-2.1 1.1-3.2.3-1-.8-1.4-1.7-1.4-3 0-2.1-.2-4.1-.3-6.2 0-.9-.1-1.9-.1-2.8 0-.8.4-1.4 1.1-1.8.7-.4 1.4-.4 2 .1.6.5 1.7 1.3 1.8 2.4.2 3.8.2 5.9.4 9.7zm-1.7-5.8c-.1-1.6-.1-3.1-.2-4.7 0-.2 0-.4-.1-.5-.3-.7-.9-1.1-1.7-1-.8.2-1.3.7-1.2 1.6.1 3.2.3 6.4.4 9.6 0 1 .7 1.6 1.6 1.6.9 0 1.5-.8 1.4-1.7-.1-1.7-.1-3.3-.2-4.9zM627.2 56.3c-.1-2.1.8-3.5 2.5-4.4.4-.2 1-.3 1.4-.4 1.2-.1 2.4-.1 3.8-.2-.4-.4-.8-.7-1.1-1-1.1-.8-1.3-1.9-.5-3 .6-.8 2.1-.9 3-.2.3.2.5.5.8.7 1 .9 1 2 .1 2.9-.1.1-.2.2-.2.4.5 0 1 0 1.5-.1 1.5-.2 2.2.8 3 1.7.1.2.2.5.2.7.1 1.7.1 3.4.2 5.1.1 1-.9 2-1.9 2.1-3.8.2-7.5.4-11.3.5-5.8.3-11.5.5-17.3.7-.5 0-1-.1-1.5-.1-.2.5-.3 1-.6 1.6-.8 1.7-1.9 2.9-3.8 3.4-2.6.7-4.9.2-7-1.5-.8-.6-1.3-1.3-1-2.2.2-.6.6-1.1 1-1.7-.5-.3-.5-.9-.5-1.6 0-1.3-.1-2.7-.2-4 0-.3.1-.6.2-.8 1.1-1.3 2.3-2.3 4.1-2.3 1.4 0 2.7-.1 3.9.7 1.3.9 2.6 1.8 3.3 3.4.1.2.4.3.5.3 5.1-.2 10.1-.4 15.2-.6.3 0 .6-.1.8-.3.4-.3.8-.5 1.4.2zm-18.9 1.3c-.4-.8-.6-1.6-1-2.2-1.8-2.7-5.7-3.2-8.2-1.1-.5.5-1.1.9-1.1 1.7 0 1.4.1 2.8.2 4.2 0 .7.5 1 1.1 1 1.4-.1 4.3-.2 4.3-.2.8 0 1.3-.4 1.6-1 0-.1.1-.2.2-.3-.4 1.9-2.4 3.2-4.4 2.8-.5-.1-.9-.3-1.4-.4-.6-.2-1.4.1-1.7.7-.4.7-.3 1.5.3 1.9 2.8 2 8.2 2 9.7-2.8.2-.7.4-1.4.6-2.3.3 1.2 1.2 1.2 2.1 1.2l15-.6c.6 0 1.1-.1 1.3-.8-.1.6.3.7.8.7 3.7-.2 7.4-.3 11.1-.5 1.1 0 1.7-.7 1.6-1.8-.1-1.6-.1-3.1-.2-4.7 0-1-.6-1.5-1.6-1.5-2.4.1-4.8.2-7.1.3-1.7.1-2.8.9-3.4 2.5-.3.7-.3 1.6-.5 2.5-.3-.1-.7-.3-1.1-.5-.3.6-1 .7-1.6.7l-14.7.6c-.9-.2-1.4-.1-1.9-.1zm28.1-9.2c0-.8-.8-1.4-1.6-1.4s-1.7.8-1.6 1.5c0 .8.8 1.5 1.7 1.4.7.1 1.5-.7 1.5-1.5z"/>
                            <path d="M649.6 55.6c0-.7-.1-1.3-.1-2-.1-1.9-.2-3.8-.2-5.7 0-.7.5-1.5 1.2-1.7.8-.3 1.5-.3 2.2.3l.6.6c.6.4.8.9.9 1.6.1 2.1.2 4.1.3 6.2.1 1.2.1 2.5.1 3.7 0 .7-.9 1.6-1.6 1.7-2.6.1-5.1.2-7.7.3-.5 0-1-.1-1.4-.5-.2-.2-.4-.3-.6-.5-.7-.5-1.1-1.5-.8-2.3.3-.8.9-1.3 1.9-1.3h.2v-.6c-.1-2.1-.2-4.2-.3-6.4-.1-1.4 0-1.4.9-2.5 0 0 .1-.3-.3-.4-.1 0-.3-.1-.4-.1-.7-.4-.6-1.1-.1-1.6.1-.2.5-.2.5-.4-.9-1 .1-1.6.9-2 .4-.2.7-.3 1.1-.5.6-.3 1-.1 1.5.4.1.1.1.2.2.2.9.6.9 1.2.1 1.9.3 1.1-.1 2.1-1.5 2.4.5.3.7.5.9.7.6.6 1 1.1 1 1.9l.3 6.3c0 .1 0 .2.1.3 0 .1 0 0 .1 0zm-4.7.7h-.8c-.9 0-1.5.6-1.5 1.4 0 .7.7 1.4 1.5 1.4l7.5-.3c.7 0 1.4-.8 1.4-1.5-.1-3.2-.3-6.3-.4-9.5 0-.6-.3-1.1-.9-1.3-1.1-.4-2.1.3-2 1.5.1 2.5.2 4.9.3 7.4v.7c-.7 0-1.4.1-2.1.1v-.6l-.3-7.2c0-.6-.2-1.2-.7-1.5-.5-.3-1-.3-1.5 0-.6.3-.8.9-.8 1.5l.3 6.6v1.3zm.2-12h-.2c-.4.1-.6.3-.5.7.1.4.4.5.7.3.4-.2.8-.3 1.2-.5 1-.4 1.2-1 .5-1.9.1-.1.3-.2.4-.3.3-.2.6-.3.4-.7-.2-.4-.6-.4-.9-.2-.5.2-.9.4-1.4.6-.5.2-.7.8-.4 1.3.1.2.2.3.3.5.1 0 0 .1-.1.2zM596.4 56.3c.1 1.6.1 3.3.2 4.9.1 1.5-1.5 2.6-2.9 1.9-.7-.3-1.2-.9-1.7-1.4-.2-.1-.2-.5-.2-.7-.2-3.5-.3-7-.5-10.5 0-1 .5-1.8 1.3-2 1-.3 2.1.1 2.6.9 0 0 1 1.1 1 2.3 0 1.6.1 3.1.2 4.6zm-4.5-.8c-.1 0-.1 0 0 0 0 1.8.1 3.6.2 5.3 0 .1 0 .3.1.4.3.5 1.3.8 1.8.6.8-.3 1.2-.8 1.2-1.6-.1-3.4-.3-6.7-.4-10.1 0-1-.7-1.6-1.6-1.6-.9 0-1.5.7-1.5 1.7 0 1.9.1 3.6.2 5.3z"/>
                            <path fill="#FFF" d="M581.8 58.9c-.1-1.1 0-2.1.6-2.9 1.1-1.8 3.4-2.5 5.3-1.6.5.2 1 .6 1.4 1.1.3.3.3.8 0 1.2-.3.4-.6.6-1.2.5l-1.5-.3c-.7-.1-1.2.3-1.2.9 0 .6.5 1 1.2.9h1.3c.8 0 1.5.6 1.5 1.3 0 .8-.6 1.5-1.4 1.5l-7.5.3c-.8 0-1.5-.6-1.5-1.4 0-.8.6-1.4 1.4-1.5h1.6zM657.8 52.4c.1 1.6.1 3.2.2 4.8 0 .9-.6 1.7-1.4 1.7-.9 0-1.6-.6-1.6-1.6-.1-3.2-.3-6.4-.4-9.6 0-.8.5-1.4 1.2-1.6.8-.2 1.4.2 1.7 1 .1.2.1.4.1.5.1 1.7.1 3.3.2 4.8zM608.3 57.6c.4 0 1 0 1.6-.1l14.7-.6c.7 0 1.3-.1 1.6-.7.4.2.8.4 1.1.5.2-.9.2-1.8.5-2.5.6-1.5 1.8-2.4 3.4-2.5 2.4-.1 4.8-.2 7.1-.3 1 0 1.6.5 1.6 1.5.1 1.6.1 3.1.2 4.7 0 1.1-.6 1.7-1.6 1.8-3.7.2-7.4.3-11.1.5-.5 0-.8 0-.8-.7-.2.7-.7.8-1.3.8l-15 .6c-.9 0-1.8 0-2.1-1.2-.2.9-.3 1.6-.6 2.3-1.6 4.9-7 4.8-9.7 2.8-.6-.4-.7-1.2-.3-1.9.3-.6 1.1-.9 1.7-.7.5.2.9.4 1.4.4 2 .3 3.9-1 4.4-2.8-.1.1-.1.2-.2.3-.3.7-.8 1-1.6 1-1.4 0-2.9.1-4.3.2-.6 0-1.1-.3-1.1-1-.1-1.4-.1-2.8-.2-4.2 0-.8.6-1.2 1.1-1.7 2.4-2.2 6.4-1.7 8.2 1.1.7.8 1 1.6 1.3 2.4zm29.3-3.2c-1.5.1-2.9.1-4.3.2-1.2.1-2.1.7-2.6 1.8-.3.5-.2.6.4.6 2-.1 4-.2 6.1-.3.2 0 .3 0 .5-.1 0-.7 0-1.4-.1-2.2zm-32.5 3.4c0-1.2-1.3-2.2-2.5-2-1.2.1-2.2 1.2-2.1 2.2 1.5-.1 3-.2 4.6-.2zM636.4 48.4c0 .8-.8 1.5-1.6 1.5s-1.6-.7-1.7-1.4c0-.8.8-1.5 1.6-1.5.9 0 1.7.7 1.7 1.4zM644.9 56.3c0-.5 0-.9-.1-1.4l-.3-6.6c0-.6.2-1.2.8-1.5.5-.3 1-.3 1.5 0s.7.9.7 1.5l.3 7.2v.6c.7 0 1.4-.1 2.1-.1v-.7c-.1-2.5-.2-4.9-.3-7.4 0-1.2 1-1.9 2-1.5.6.2.9.7.9 1.3.1 3.2.3 6.3.4 9.5 0 .7-.6 1.4-1.4 1.5l-7.5.3c-.8 0-1.6-.7-1.5-1.4 0-.8.7-1.4 1.5-1.4.4.1.6.1.9.1zM645 43.7c-.2-.5 0-1.1.4-1.3.5-.2.9-.4 1.4-.6.4-.2.7-.2.9.2.2.4-.2.5-.4.7-.1.1-.3.2-.4.3.7.9.5 1.5-.5 1.9-.4.2-.8.3-1.2.5-.4.2-.7 0-.7-.3-.1-.4.1-.6.5-.7 0-.1.3-.4 0-.7zM591.9 55.5c-.1-1.7-.1-3.4-.2-5.1 0-1 .6-1.7 1.5-1.7s1.6.6 1.6 1.6c.1 3.4.3 6.7.4 10.1 0 .8-.3 1.3-1.2 1.6-.5.2-1.5-.1-1.8-.6-.1-.1-.1-.3-.1-.4-.1-1.9-.2-3.7-.2-5.5-.1 0-.1 0 0 0z"/>
                            <path d="M637.6 54.4c0 .8.1 1.5.1 2.3h-.5c-2 .1-4 .2-6.1.3-.6 0-.7-.1-.4-.6.5-1.1 1.4-1.7 2.6-1.8 1.5-.1 2.9-.1 4.3-.2zm-.2 1.5v.6l-4 .2c-.5 0-1 0-1.5.1-.1 0-.2 0-.1-.1.1-.3.3-.4.6-.4.4-.2 4.6-.4 5-.4zM605.1 57.8c-1.6.1-3.1.1-4.6.2-.2-1 .8-2.1 2.1-2.2 1.2-.2 2.4.8 2.5 2zm-2.4-.2c.6 0 1.2-.1 1.9-.1-.6-.5-1.3-.5-1.9.1z"/>
                        </g>
                    </g>
                </g>
            </g>
            <g>
                <path fill="#C8C8C8" d="M566.1 144.3c-2.6.7-7.9 3.7-7.7 6.7.2 3.1 2.8 4.4 5.1 3.9 2.3-.5 4.5-.5 6.8-.6 2.2-.2 5-1.1 5.4-3.5.4-2.4.3-6.3-2.4-6.7-3-.4-5.1-.4-7.2.2z"/>
                <path fill="#919597" d="M566 144.1c-2.4.7-8.1 3.7-7.9 7v.1c.1 1.7 1 2.7 1.7 3.3 1 .8 2.4 1.1 3.8.8 1.7-.4 3.4-.5 5-.5l1.7-.1c2.4-.2 5.2-1.2 5.6-3.7.1-.9.5-4.1-.7-5.8-.5-.6-1.1-1-1.9-1.2-3-.6-5.2-.5-7.3.1zm-6 10c-.9-.7-1.4-1.7-1.5-3-.1-2.8 4.8-5.7 7.6-6.5 2-.6 4.2-.6 7-.2.7.1 1.2.4 1.6 1 1.2 1.6.8 4.6.7 5.4-.4 2.2-2.9 3.2-5.1 3.3l-1.7.1c-1.7.1-3.4.2-5.1.6-1.3.2-2.6-.1-3.5-.7zm6-10z"/>
                <path fill="#C8C8C8" d="M560.3 124c-2.3.8-6.6 2.8-5.9 8.6.6 5.8 5.9 1.4 8.9-.1 3-1.6 6.2-1.9 5.9-4.2-.2-2.5-4.1-5.9-8.9-4.3z"/>
                <path fill="#919597" d="M560.3 123.7c-4.5 1.6-6.6 4.5-6.1 8.8.2 1.5.7 2.5 1.5 2.9 1.6.8 4-.6 6.1-1.9l1.7-.9 2.4-1.1c2.1-.8 3.9-1.5 3.6-3.4-.2-1.3-1.2-2.7-2.8-3.7-1.1-.6-3.4-1.7-6.4-.7zm6.2 1.2c1.4.9 2.4 2.2 2.6 3.3.2 1.4-1.1 2-3.3 2.9l-2.5 1.1-1.7 1c-1.9 1.1-4.3 2.6-5.7 1.9-.7-.3-1.1-1.2-1.2-2.5v-.4c-.3-3.9 1.6-6.4 5.8-7.9 2.7-1 4.9-.1 6 .6z"/>
                <path fill="#C8C8C8" d="M569.1 131c-1.5-.6-5.5-.4-7.8 1.1s-5.9 3.6-5.2 6.6c1.1 4.7 6.3 1.7 9 .6s5.8.8 7 0c1.2-1 .6-6.8-3-8.3z"/>
                <path fill="#919597" d="M561.2 131.8c-2.5 1.5-6 3.8-5.3 6.8.3 1.2.8 2 1.7 2.4 1.8.9 4.4-.2 6.6-1.2l1.1-.5c1.4-.6 3-.3 4.4 0 1.1.2 2.1.4 2.7 0 .6-.4.7-1.7.6-2.8-.2-2-1.3-4.8-3.7-5.8-1.6-.6-5.7-.4-8.1 1.1zm-3.5 8.8c-.7-.4-1.1-1-1.4-2.1-.6-2.7 2.8-4.8 5-6.2l.1-.1c2.2-1.4 6.2-1.6 7.6-1 2.2.9 3.2 3.5 3.4 5.4v.2c.1 1.2-.2 1.9-.4 2.1-.4.3-1.3.1-2.3 0-1.4-.3-3.1-.6-4.6.1l-1.1.5c-2.1.8-4.7 1.9-6.3 1.1z"/>
                <g>
                    <path fill="#C8C8C8" d="M564.9 138.3c-1.2.2-6 2.4-7.4 5.5-.8 1.9 0 6.2 2.3 5.7s5.4-2.9 7.8-3.5c2.3-.6 7.3-.2 7.4-1.4.1-1.2-1.1-6.5-3.9-6.8-2.8-.3-4.4.2-6.2.5z"/>
                    <path fill="#919597" d="M565.9 137.9l-1.1.2c-1.4.2-6.2 2.5-7.6 5.6-.7 1.5-.3 4.1.7 5.4.5.6 1.2.9 1.9.7 1.2-.3 2.6-1 4-1.8 1.3-.7 2.7-1.4 3.8-1.7.9-.2 2.1-.3 3.3-.4 2.2-.1 4.2-.3 4.2-1.3.1-1.2-1.1-6.7-4.1-7-2.2-.3-3.6 0-5.1.3zm.1.4c1.4-.3 2.8-.5 5.1-.3 2.6.3 3.8 5.2 3.7 6.5 0 .6-2.2.7-3.8.8-1.2.1-2.5.2-3.4.4-1.2.3-2.6 1.1-3.9 1.8-1.4.7-2.8 1.5-3.9 1.7-.5.1-1-.1-1.4-.6-.5-.7-.8-1.7-.9-2.7-.1-.8 0-1.6.3-2.1 1.3-2.9 5.9-5.1 7.2-5.3l1-.2zm-1.1.2z"/>
                </g>
                <g>
                    <path fill="#C8C8C8" d="M548.6 127.1c-1.9 1-3.7 5 .7 9.6s7 5.4 9 3.5c2-1.8-1-6.8-3-9.6-2-2.7-3.2-5.2-6.7-3.5z"/>
                    <path fill="#919597" d="M548.5 126.9c-1 .5-1.8 1.7-2.1 3.1-.2 1.3-.2 3.9 2.7 6.9 4.2 4.5 7.1 5.6 9.4 3.5 2.2-2-1-7.1-3-9.9l-.6-.9c-1.6-2.3-3.1-4.3-6.4-2.7zm6 3.1l.6.9c1.6 2.2 5 7.5 3.1 9.2-2 1.8-4.6.8-8.7-3.5-2-2.1-2.5-3.9-2.6-5.2 0-.5 0-.9.1-1.3.3-1.5 1.1-2.4 1.8-2.7 2.9-1.5 4 .2 5.7 2.6z"/>
                </g>
            </g>
            <g>
                <path fill="#BBB" d="M507.2 102.7c2.1 36.8-19.7 52.2-48.5 54.2-28.7 2-51.9-8.3-55.6-46.8-.9-9.2 1-18 4.9-25.8 7.9-15.7 24.3-27 43.6-28.4 28.8-2.1 54 18.9 55.6 46.8z"/>
                <path fill="#A1A1A1" d="M501.1 127.4c-24.8 25-73.6 28.4-93-4.1-2.5-4-4-8.4-4.9-12.9 3.8 38.2 26.9 48.5 55.6 46.5 24.1-1.7 43.3-12.8 47.7-38-1.2 3.1-2.9 5.9-5.4 8.5z"/>
                <path fill="#D8D8D8" d="M413.2 85c16.3-15.3 35.9-23.6 58.1-20.4 2.1.3 13.8 3 15.7 3.7-8.3-7-22-11.1-34.1-10.2-17.3 1.2-33.9 12.6-39.7 26.9z"/>
                <path fill="#777B7D" d="M419.9 147.3c-3.9 2.1-2.6 5.5-.9 7.1 1.8 1.6 9.6 5.1 21.5 5.1s35.6-2.9 42-4.9c9.1-2.9 13.7-6.1 15.6-8.8 1.2-1.7 1.5-5.2-.2-6.4-1.7-1.2-15.2 7.7-36 9.4-33.4 2.8-40.9-2.1-42-1.5z"/>
                <path fill="#535353" d="M482.9 153.2c-6.7 2.1-31.3 5-43.6 5-9.9 0-17-2.2-20.4-3.9l.1.1c1.8 1.6 9.6 5.1 21.5 5.1s35.6-2.9 42-4.9c9.1-2.9 13.7-6.1 15.6-8.8.2-.2.3-.5.4-.8-2.2 2.6-6.9 5.5-15.6 8.2z"/>
                <path fill="#A4A4A4" d="M482.3 147.2c-6.7 2-31.3 4.9-43.6 4.9-9.9 0-17-2-20.4-3.7l.1.1c1.8 1.5 9.6 4.8 21.5 4.8s35.6-2.8 42-4.8c9.1-2.8 13.7-5.9 15.7-8.4.2-.2.3-.5.4-.7-2.3 2.5-7 5.3-15.7 7.8z"/>
                <g>
                    <path fill="#191919" d="M503.8 102.3c1.7 29.2-14.4 41.2-35.8 42.7-21.3 1.5-38.6-6.8-41.4-37.3-2.1-22 14.6-39 35.9-40.5 21.4-1.5 40 13 41.3 35.1z"/>
                    <path fill="#FBD099" d="M455.5 68.3c-17.8 4.3-30.7 19.9-28.9 39.4 2.9 30.5 20.1 38.8 41.4 37.3 2.5-.2 4.9-.5 7.2-1 9.7-8 14.9-20.7 13.2-33.4L487 99.4c-2.1-16.3-15.2-29.4-31.5-31.1z"/>
                    <path fill="#DBB086" d="M455.9 68.2c-1.2.3-2.5.6-3.7 1 13.4 5.5 23.2 17.1 25 31l1.6 12.3c1.6 11.8-2.6 23.6-10.9 32.4h.1c2.7-.2 5.3-.6 7.8-1.1 9.4-7.9 14.3-20.6 12.7-33.3L487 99.4c-2.1-16.5-14.8-29.7-31.1-31.2z"/>
                    <path fill="#99492C" d="M472 128.8c.2 5-2.9 9.8-7.4 11-5 1.3-9.7-2.4-10-8.5"/>
                    <path fill="#FFF" d="M472 128.4c0 .8 0 1.9-.1 1.9l-16.9 2.8c-.2 0-.3-1.4-.4-2.4M478.1 109.2c.3 2.6-1.4 5.1-3.9 5.5-2.5.4-4.9-1.4-5.2-4.1-.4-2.7 1.4-5.2 4-5.5 2.5-.4 4.8 1.5 5.1 4.1z"/>
                    <path d="M473.2 107c-.2 0-.4.1-.7.2.2.2.3.4.3.7.1.7-.4 1.4-1.1 1.5-.3 0-.6 0-.9-.2-.1.4-.1.8-.1 1.2.2 1.6 1.6 2.7 3.2 2.5 1.5-.2 2.6-1.7 2.3-3.3-.1-1.7-1.4-2.8-3-2.6z"/>
                    <path fill="#FFF" d="M452.3 113.3c.4 2.9-1.7 5.6-4.6 6.1-3 .5-5.7-1.5-6.1-4.4-.4-2.9 1.8-5.7 4.7-6.1 3-.5 5.6 1.5 6 4.4z"/>
                    <path d="M446.6 111c-.3 0-.5.1-.8.2.2.2.3.5.3.7.1.8-.5 1.5-1.3 1.7-.4.1-.7 0-1-.2-.1.4-.1.8-.1 1.3.2 1.8 1.9 3 3.7 2.7 1.8-.3 3-1.9 2.8-3.7-.2-1.8-1.8-3-3.6-2.7z"/>
                    <path fill-rule="evenodd" clip-rule="evenodd" fill="#6B3815" d="M482.4 86.7l2 15.5c1.9-.7 5.5-3.4 5.2-6l-1.3-10-5.9.5zM426.6 107.7c0 .4.1.7.1 1.1.1-.1.2-.1.2-.2 7.4-6.3 13.8-21 11.5-31.4-8.2 7.3-12.9 18.1-11.8 30.5z"/>
                    <path fill-rule="evenodd" clip-rule="evenodd" fill="#4F260B" d="M429.2 106.6c4.8-4.9 12.1-17.8 8.8-28.9-1.6 1.5-3 3-4.3 4.7 2.8 13.7-4.5 24.2-4.5 24.2z"/>
                    <g>
                        <path fill-rule="evenodd" clip-rule="evenodd" fill="#4F260B" d="M450.5 83.2s13.9 13.6 29.2 9.1c0 0-12.5 5.1-23.5 2.6-.1 0-5.3-6-5.7-11.7z"/>
                    </g>
                    <g opacity=".3" fill-rule="evenodd" clip-rule="evenodd" fill="#4F260B">
                        <path d="M438.2 89c-1.9 7.6-6.3 15.3-11.1 19.5.2-.1.4-.3.6-.4 4.8-3.5 9.3-9.9 11.3-15.9 3.9 3.2 9.8 5.9 18.6 7.5-.7-.8-1.2-1.4-1.8-2-7.9-2-13.6-5.1-17.6-8.7zM488.5 79.7c-.1.1-.1.1 0 0 0 .1.2.2.3.2 0-.1.1-.1.1-.2-.2.1-.3 0-.4 0zM479.7 92.3S468 97 457.3 95.1c-.3 0-.7-.1-1-.1.6.7 1.1 1.4 1.7 2.2 19.3 1.1 28.1-7.5 30.2-9.8-2.3 1.7-5.2 3.6-9 5 .1-.1.3-.1.5-.1z"/>
                    </g>
                    <g>
                        <path opacity=".3" fill="#4F260B" d="M477.8 100.8l-9.2.9c-3.1.3-4.7 3-4.2 6.8l.1.6c-2-.5-5-.1-7.8.9l-.1-.5c-.5-3.9-2.6-6.3-6.2-6l-12.6 1.2c-4.3.4-7 3.7-6.4 8.2l1.2 9.1c.6 4.5 4.8 7.8 9 6.9l12.2-2.8c3.5-.8 4.8-4.9 4.3-8.8l-.5-4c1.9-1.5 5-1.9 7.2-.8l.5 3.7c.5 3.8 3 6.8 6 6.1l9.3-2.1c2.6-.6 3.5-4 3.1-7.4l-.9-6.8c-.4-3.4-2.4-5.5-5-5.2zm-20.6 16.8c.3 2.3-.7 5-2.7 5.4l-13.7 2.8c-2.4.5-4.7-1.8-5-4.4l-1.2-8.9c-.3-2.6 1.3-4.3 3.7-4.6l13.7-1.6h.3c2.1-.2 3.5 1 3.9 3.3l1 8zm24.5-4.5c.3 2-.3 4.2-1.8 4.5l-9 1.9c-1.7.4-2.2-1.8-2.5-4l-1-7.5c-.3-2.2-.2-3.4 1.6-3.7l9.3-1h-.3c1.5-.2 2.5.9 2.7 2.8l1 7z"/>
                        <path fill="none" stroke="#000" stroke-width="3.016" stroke-miterlimit="10" d="M464.6 110.1c-2.2-2-5.3-1.5-6.9 1"/>
                        <path d="M478.2 101.6c1.4 0 2.7 1.4 3 3.3l.9 6.9c.3 2-.7 3.8-2.2 4.1l-9.8 1.9h-.5c-1.5 0-2.9-1.4-3.2-3.4l-1-7.6c-.3-2.2.9-4.1 2.7-4.3l9.9-1c.1.1.1.1.2.1m0-3.1h-.5l-9.9 1c-1.6.2-3 1-4 2.2-1.2 1.5-1.7 3.4-1.4 5.4l1 7.6c.5 3.5 3.1 6 6.2 6 .4 0 .7 0 1.1-.1l9.8-1.9c3.1-.6 5.1-3.9 4.6-7.5l-.9-6.9c-.4-3.2-3-5.8-6-5.8z"/>
                        <path opacity=".3" fill="#FFF" d="M481.9 104.3c-.3-2-1.7-3.5-3.2-3.3l-11.1 1.1c-1.8.2-3 2.1-2.7 4.3l1.2 9.2c.3 2.2 2 3.7 3.8 3.3l11-2.2c1.5-.3 2.5-2.2 2.2-4.2l-1.2-8.2z"/>
                        <path fill="#FFF" d="M470.6 101.8l-2.9 16.7c.6.4 1.3.6 2.1.4l4.2-.9 2.7-16.9-6.1.7z" opacity=".3"/>
                        <path d="M452.2 104.3c1.9 0 3.6 1.6 3.9 3.8l1.1 8c.3 2.3-1.1 4.5-3.1 4.9l-13.4 2.6c-.3.1-.5.1-.8.1-2.1 0-3.9-1.6-4.2-3.9l-1.2-8.9c-.3-2.6 1.4-4.9 3.9-5.1l13.6-1.4c-.1-.1.1-.1.2-.1m0-3h-.7l-13.6 1.4c-2 .2-3.7 1.2-5 2.8-1.3 1.6-1.8 3.7-1.6 5.8l1.2 8.9c.5 3.8 3.5 6.5 7.2 6.5.5 0 .9 0 1.4-.1l13.4-2.6c3.6-.7 6-4.3 5.5-8.2l-1.1-8c-.3-3.8-3.3-6.5-6.7-6.5z"/>
                        <path opacity=".3" fill="#FFF" d="M457 107.4c-.3-2.3-2.2-4-4.3-3.8l-15.2 1.5c-2.5.3-4.3 2.6-3.9 5.2l1.4 10.8c.3 2.6 2.7 4.3 5.1 3.8l15-3.1c2.1-.4 3.4-2.6 3.1-4.9l-1.2-9.5z"/>
                        <path fill="#FFF" d="M441.7 104.7l-4.4 19.8c.8.5 1.8.6 2.9.4l5.8-1.2 4.1-19.9-8.4.9z" opacity=".3"/>
                    </g>
                    <path fill-rule="evenodd" clip-rule="evenodd" fill="#6B3815" d="M462.6 67.3c-11.7.8-22 6.3-28.6 14.8 2.2 6.5 8.5 13.5 24.6 16.1-.9-1.1-1.6-1.9-2.4-2.9 26.4 1.9 39.1-14.3 39.1-14.3-2.4-.6-6.3-1.7-6.3-1.7s1.4-.9 3-2.3c-7.7-6.8-18.2-10.5-29.4-9.7z"/>
                    <path opacity=".5" d="M429.8 109.3c-2.1-22 14.6-39 35.9-40.5 6.6-.5 13 .6 18.7 3-6.4-3.4-14-5.1-21.9-4.5-21.3 1.5-38 18.5-35.9 40.5 1.9 19.7 9.7 30.1 20.8 34.6-9.3-5.2-15.9-15.4-17.6-33.1z"/>
                    <g>
                        <path opacity=".25" d="M494.1 93.9c-1.8 9.5-9.3-2.8-21-5.6-7.5-1.8-14.9.7-18.7.2-1.1-.2-3.6-2.3-3.6-5.5 0-2.7 2.3-6.4 3.7-7.4 4.9-3.8 15.2-5.5 21.8-3.9 11.6 2.8 19.6 12.7 17.8 22.2z"/>
                        <path opacity=".3" fill="#FFF" d="M491.1 90.7s-1-9.6-7.2-13.5c-6.2-3.9-10.1-2.3-10.2.2-.1 2.5 4.2 3.9 8.9 5.7 4.7 1.8 8.5 7.6 8.5 7.6z"/>
                        <ellipse transform="rotate(-4.052 467.288 77.19)" opacity=".4" fill="#FFF" cx="467.3" cy="77.2" rx="3.1" ry="2.8"/>
                    </g>
                    <path opacity=".16" d="M477.8 139.3c-21.3 1.5-38.6-6.8-41.4-37.3-1.2-13.2 4.3-24.6 13.4-31.9-14.8 6-24.8 20.2-23.2 37.6 2.9 30.5 20.1 38.8 41.4 37.3 9.4-.7 17.8-3.4 24.1-8.7-4.3 1.7-9.2 2.7-14.3 3z"/>
                </g>
            </g>
        </g>
        <g>
            <path fill="#3D8DA6" d="M64 100.9c.9-.7 2.2-.6 2.9.3l9.6 11.5c.7.9.6 2.2-.3 2.9l-6.5 5.4c-.9.7-2.2.6-2.9-.3l-9.6-11.5c-.7-.9-.6-2.2.3-2.9l6.5-5.4z"/>
            <path opacity=".1" fill="#FFF" d="M57.2 109.3l9.6 11.5c.7.9 2 1 2.9.3l3.3-2.7-12.2-14.7-3.3 2.7c-.9.7-1.1 2-.3 2.9z"/>
            <g fill="#66B5CC">
                <path d="M37.614 90.088l-5.382 4.477-.767-.923 5.38-4.476zM33.442 85.107l-5.382 4.477-.767-.923 5.382-4.475z"/>
            </g>
            <path fill="#3D8DA6" d="M25.3 83.6c.5-.4 1.2-.3 1.7.2l10 12.1c.4.5.3 1.2-.2 1.7l-23.6 19.6c-.5.4-1.2.3-1.7-.2l-10-12.1c-.4-.5-.3-1.2.2-1.7l23.6-19.6z"/>
            <path fill="#9DD1E0" d="M25.3 84.8c.4-.4 1.1-.3 1.5.1l9 10.8c.4.4.3 1.1-.1 1.5l-22.4 18.7c-.4.4-1.1.3-1.5-.1l-9-10.8c-.4-.4-.3-1.1.1-1.5l22.4-18.7z"/>
            <path fill="#3D8DA6" d="M12.563 115.322l-1.983-2.384 2.384-1.982 1.982 2.383z"/>
            <path opacity=".2" fill="#9DD1E0" d="M13 111l2 2.4-4.4-.4"/>
            <path fill="#3D8DA6" d="M10.184 112.403L8.2 110.02l2.384-1.983 1.983 2.383z"/>
            <path opacity=".2" fill="#9DD1E0" d="M10.6 108l1.9 2.4-4.3-.4"/>
            <path fill="#3D8DA6" d="M7.663 109.47L5.68 107.09l2.384-1.983 1.983 2.384z"/>
            <path opacity=".2" fill="#9DD1E0" d="M8.1 105.1l2 2.4-4.4-.4"/>
            <path fill="#3D8DA6" d="M5.284 106.552l-1.982-2.383 2.383-1.984 1.982 2.384z"/>
            <path opacity=".2" fill="#9DD1E0" d="M5.7 102.2l1.9 2.4-4.3-.4"/>
            <path fill="#3D8DA6" d="M15.526 112.98l-1.982-2.383 2.383-1.982 1.983 2.383z"/>
            <path opacity=".2" fill="#9DD1E0" d="M15.9 108.6l2 2.4-4.4-.4"/>
            <path fill="#3D8DA6" d="M13.083 109.985L11.1 107.6l2.384-1.98L15.466 108z"/>
            <path opacity=".2" fill="#9DD1E0" d="M13.5 105.6l1.9 2.4-4.3-.4"/>
            <path fill="#3D8DA6" d="M10.563 107.053L8.58 104.67l2.384-1.983 1.982 2.383z"/>
            <path opacity=".2" fill="#9DD1E0" d="M11 102.7l2 2.4-4.4-.4"/>
            <path fill="#3D8DA6" d="M8.184 104.134L6.2 101.75l2.385-1.982 1.982 2.384z"/>
            <path opacity=".2" fill="#9DD1E0" d="M8.6 99.8l1.9 2.3-4.3-.4"/>
            <path fill="#3D8DA6" d="M18.426 110.562l-1.983-2.383 2.384-1.983 1.982 2.383z"/>
            <path opacity=".2" fill="#9DD1E0" d="M18.8 106.2l2 2.3-4.4-.4"/>
            <path fill="#3D8DA6" d="M15.983 107.567L14 105.183l2.384-1.982 1.982 2.384z"/>
            <path opacity=".2" fill="#9DD1E0" d="M16.3 103.2l2 2.4-4.3-.4"/>
            <path fill="#3D8DA6" d="M13.463 104.635l-1.983-2.384 2.383-1.98 1.983 2.382z"/>
            <path opacity=".2" fill="#9DD1E0" d="M13.9 100.3l2 2.4-4.4-.4"/>
            <path fill="#3D8DA6" d="M11.083 101.716L9.1 99.333l2.384-1.983 1.983 2.383z"/>
            <path opacity=".2" fill="#9DD1E0" d="M11.5 97.4l1.9 2.3-4.3-.4"/>
            <g>
                <path fill="#3D8DA6" d="M21.326 108.144l-1.983-2.383 2.383-1.98 1.983 2.382z"/>
                <path opacity=".2" fill="#9DD1E0" d="M21.7 103.8l2 2.3-4.4-.4"/>
                <path fill="#3D8DA6" d="M18.882 105.148l-1.982-2.383 2.383-1.982 1.983 2.383z"/>
                <path opacity=".2" fill="#9DD1E0" d="M19.2 100.8l2 2.4-4.3-.4"/>
                <g>
                    <path fill="#3D8DA6" d="M16.362 102.217l-1.982-2.384 2.383-1.982 1.982 2.384z"/>
                    <path opacity=".2" fill="#9DD1E0" d="M16.8 97.9l2 2.4-4.4-.4"/>
                </g>
                <g>
                    <path fill="#3D8DA6" d="M13.983 99.298L12 96.914l2.384-1.982 1.982 2.383z"/>
                    <path opacity=".2" fill="#9DD1E0" d="M14.4 94.9l1.9 2.4-4.3-.4"/>
                </g>
            </g>
            <g>
                <path fill="#3D8DA6" d="M24.225 105.726l-1.982-2.383 2.383-1.983 1.982 2.384z"/>
                <path opacity=".2" fill="#9DD1E0" d="M24.6 101.3l2 2.4-4.4-.4"/>
                <path fill="#3D8DA6" d="M21.705 102.794l-1.982-2.383 2.383-1.982 1.982 2.384z"/>
                <path opacity=".2" fill="#9DD1E0" d="M22.1 98.4l2 2.4-4.3-.4"/>
                <g>
                    <path fill="#3D8DA6" d="M19.326 99.875l-1.983-2.383 2.384-1.982 1.982 2.383z"/>
                    <path opacity=".2" fill="#9DD1E0" d="M19.7 95.5l2 2.4-4.4-.4"/>
                </g>
                <g>
                    <path fill="#3D8DA6" d="M16.883 96.88L14.9 94.496l2.383-1.982 1.983 2.383z"/>
                    <path opacity=".2" fill="#9DD1E0" d="M17.3 92.5l1.9 2.4-4.3-.4"/>
                </g>
            </g>
            <g>
                <path fill="#3D8DA6" d="M27.125 103.308l-1.983-2.383 2.384-1.983 1.982 2.383z"/>
                <path opacity=".2" fill="#9DD1E0" d="M27.5 98.9l2 2.4-4.4-.4"/>
                <path fill="#3D8DA6" d="M24.605 100.376l-1.983-2.383 2.383-1.983 1.983 2.384z"/>
                <path opacity=".2" fill="#9DD1E0" d="M25 96l2 2.4-4.3-.4"/>
                <g>
                    <path fill="#3D8DA6" d="M22.225 97.457l-1.982-2.383 2.383-1.983 1.983 2.385z"/>
                    <path opacity=".2" fill="#9DD1E0" d="M22.6 93.1l2 2.3-4.4-.4"/>
                </g>
                <g>
                    <path fill="#3D8DA6" d="M19.782 94.46L17.8 92.08l2.383-1.982 1.982 2.383z"/>
                    <path opacity=".2" fill="#9DD1E0" d="M20.1 90.1l2 2.4-4.3-.4"/>
                </g>
            </g>
            <g>
                <path fill="#3D8DA6" d="M30.024 100.89l-1.982-2.383 2.383-1.983 1.983 2.383z"/>
                <path opacity=".2" fill="#9DD1E0" d="M30.4 96.5l2 2.4-4.4-.4"/>
                <path fill="#3D8DA6" d="M27.504 97.958l-1.982-2.383 2.383-1.983 1.982 2.383z"/>
                <path opacity=".2" fill="#9DD1E0" d="M27.9 93.6l2 2.4-4.3-.4"/>
                <g>
                    <path fill="#3D8DA6" d="M25.125 95.04l-1.983-2.384 2.384-1.983 1.982 2.384z"/>
                    <path opacity=".2" fill="#9DD1E0" d="M25.5 90.7l2 2.3-4.4-.4"/>
                </g>
                <g>
                    <path fill="#3D8DA6" d="M22.682 92.043L20.7 89.66l2.382-1.982 1.983 2.383z"/>
                    <path opacity=".2" fill="#9DD1E0" d="M23 87.7l2 2.4-4.3-.4"/>
                </g>
            </g>
            <g>
                <path fill="#3D8DA6" d="M32.924 98.472l-1.983-2.384 2.385-1.982 1.982 2.383z"/>
                <path opacity=".2" fill="#9DD1E0" d="M33.3 94.1l1.9 2.4-4.3-.4"/>
                <path fill="#3D8DA6" d="M30.404 95.54l-1.983-2.383 2.385-1.983 1.982 2.383z"/>
                <path opacity=".2" fill="#9DD1E0" d="M30.8 91.2l2 2.4-4.4-.4"/>
                <g>
                    <path fill="#3D8DA6" d="M28.024 92.62l-1.982-2.382 2.383-1.983 1.983 2.383z"/>
                    <path opacity=".2" fill="#9DD1E0" d="M28.4 88.2l2 2.4-4.4-.4"/>
                </g>
                <g>
                    <path fill="#3D8DA6" d="M25.504 89.69l-1.982-2.384 2.383-1.983 1.983 2.384z"/>
                    <path opacity=".2" fill="#9DD1E0" d="M25.9 85.3l2 2.4-4.3-.4"/>
                </g>
            </g>
            <g>
                <g fill="#66B5CC">
                    <path d="M50.998 77.292l5.382-4.477.767.923-5.38 4.476zM46.928 72.365l5.38-4.476.77.92-5.383 4.478z"/>
                </g>
                <path fill="#3D8DA6" d="M47.6 65c-.5.4-.6 1.2-.2 1.7l10 12.1c.4.5 1.2.6 1.7.2l23.6-19.6c.5-.4.6-1.2.2-1.7l-10-12.1c-.4-.5-1.2-.6-1.7-.2L47.6 65z"/>
                <path fill="#9DD1E0" d="M48.8 65.2c-.4.4-.5 1-.1 1.5l9 10.8c.4.4 1 .5 1.5.1L81.6 59c.4-.4.5-1 .1-1.5l-9-10.8c-.4-.4-1-.5-1.5-.1L48.8 65.2z"/>
                <path fill="#3D8DA6" d="M78.777 60.253l-1.983-2.383 2.383-1.983 1.983 2.384z"/>
                <path opacity=".2" fill="#9DD1E0" d="M76.8 57.9l2 2.4.4-4.4"/>
                <path fill="#3D8DA6" d="M76.397 57.334l-1.982-2.383 2.383-1.982 1.983 2.384z"/>
                <path opacity=".2" fill="#9DD1E0" d="M74.4 54.9l2 2.4.4-4.3"/>
                <path fill="#3D8DA6" d="M73.954 54.338l-1.982-2.383 2.383-1.982 1.982 2.383z"/>
                <path opacity=".2" fill="#9DD1E0" d="M71.9 52l2 2.4.4-4.4"/>
                <path fill="#3D8DA6" d="M71.498 51.483L69.515 49.1l2.384-1.982 1.98 2.383z"/>
                <path opacity=".2" fill="#9DD1E0" d="M69.5 49.1l2 2.3.4-4.3"/>
                <g>
                    <path fill="#3D8DA6" d="M75.877 62.67l-1.982-2.382 2.383-1.983 1.982 2.384z"/>
                    <path opacity=".2" fill="#9DD1E0" d="M73.9 60.3l2 2.4.4-4.4"/>
                    <path fill="#3D8DA6" d="M73.498 59.752l-1.983-2.383 2.384-1.983 1.98 2.383z"/>
                    <path opacity=".2" fill="#9DD1E0" d="M71.5 57.4l2 2.3.4-4.3"/>
                    <g>
                        <path fill="#3D8DA6" d="M71.055 56.756l-1.983-2.383 2.383-1.982 1.983 2.384z"/>
                        <path opacity=".2" fill="#9DD1E0" d="M69.1 54.4l1.9 2.4.4-4.4"/>
                    </g>
                    <g>
                        <path fill="#3D8DA6" d="M68.598 53.902l-1.982-2.384L69 49.536l1.982 2.383z"/>
                        <path opacity=".2" fill="#9DD1E0" d="M66.6 51.5l2 2.4.4-4.4"/>
                    </g>
                </g>
                <g>
                    <path fill="#3D8DA6" d="M72.978 65.09l-1.983-2.384 2.383-1.982 1.983 2.383z"/>
                    <path opacity=".2" fill="#9DD1E0" d="M71 62.7l2 2.4.4-4.4"/>
                    <path fill="#3D8DA6" d="M70.598 62.17l-1.982-2.383L71 57.805l1.98 2.383z"/>
                    <path opacity=".2" fill="#9DD1E0" d="M68.6 59.8l2 2.3.4-4.3"/>
                    <g>
                        <path fill="#3D8DA6" d="M68.155 59.175l-1.982-2.384 2.383-1.98 1.982 2.382z"/>
                        <path opacity=".2" fill="#9DD1E0" d="M66.2 56.8l1.9 2.4.4-4.4"/>
                    </g>
                    <g>
                        <path fill="#3D8DA6" d="M65.7 56.32l-1.984-2.384 2.384-1.982 1.982 2.383z"/>
                        <path opacity=".2" fill="#9DD1E0" d="M63.7 53.9l2 2.4.4-4.4"/>
                    </g>
                </g>
                <g>
                    <path fill="#3D8DA6" d="M70.155 67.444l-1.983-2.384 2.384-1.982 1.982 2.383z"/>
                    <path opacity=".2" fill="#9DD1E0" d="M68.1 65.1l2 2.4.4-4.4"/>
                    <path fill="#3D8DA6" d="M67.7 64.59l-1.984-2.385 2.384-1.982 1.982 2.383z"/>
                    <path opacity=".2" fill="#9DD1E0" d="M65.7 62.2l2 2.3.4-4.3"/>
                    <g>
                        <path fill="#3D8DA6" d="M65.255 61.593l-1.982-2.384 2.383-1.983 1.983 2.383z"/>
                        <path opacity=".2" fill="#9DD1E0" d="M63.3 59.2l1.9 2.4.4-4.3"/>
                    </g>
                    <g>
                        <path fill="#3D8DA6" d="M62.8 58.738l-1.983-2.383 2.383-1.983 1.983 2.383z"/>
                        <path opacity=".2" fill="#9DD1E0" d="M60.8 56.3l2 2.4.4-4.4"/>
                    </g>
                </g>
                <g>
                    <path fill="#3D8DA6" d="M67.255 69.862l-1.982-2.384 2.383-1.982 1.983 2.383z"/>
                    <path opacity=".2" fill="#9DD1E0" d="M65.3 67.5l1.9 2.4.4-4.4"/>
                    <path fill="#3D8DA6" d="M64.8 67.007l-1.983-2.384L65.2 62.64l1.982 2.384z"/>
                    <path opacity=".2" fill="#9DD1E0" d="M62.8 64.6l2 2.4.4-4.4"/>
                    <g>
                        <path fill="#3D8DA6" d="M62.356 64.01l-1.983-2.382 2.384-1.983 1.982 2.384z"/>
                        <path opacity=".2" fill="#9DD1E0" d="M60.4 61.6l1.9 2.4.4-4.3"/>
                    </g>
                    <g>
                        <path fill="#3D8DA6" d="M59.913 61.015l-1.983-2.383 2.383-1.983 1.983 2.383z"/>
                        <path opacity=".2" fill="#9DD1E0" d="M57.9 58.7l2 2.4.4-4.4"/>
                    </g>
                </g>
                <g>
                    <path fill="#3D8DA6" d="M64.356 72.28l-1.983-2.383 2.384-1.983 1.982 2.383z"/>
                    <path opacity=".2" fill="#9DD1E0" d="M62.4 69.9l1.9 2.4.4-4.4"/>
                    <path fill="#3D8DA6" d="M61.9 69.425l-1.983-2.383L62.3 65.06l1.983 2.382z"/>
                    <path opacity=".2" fill="#9DD1E0" d="M59.9 67l2 2.4.4-4.4"/>
                    <g>
                        <path fill="#3D8DA6" d="M59.456 66.43l-1.982-2.384 2.383-1.983 1.982 2.384z"/>
                        <path opacity=".2" fill="#9DD1E0" d="M57.5 64l1.9 2.4.4-4.3"/>
                    </g>
                    <g>
                        <path fill="#3D8DA6" d="M57.013 63.433L55.03 61.05l2.384-1.982 1.982 2.383z"/>
                        <path opacity=".2" fill="#9DD1E0" d="M55 61.1l2 2.4.4-4.4"/>
                    </g>
                </g>
                <g>
                    <path fill="#3D8DA6" d="M61.456 74.698l-1.982-2.383 2.383-1.983 1.982 2.383z"/>
                    <path opacity=".2" fill="#9DD1E0" d="M59.5 72.3l1.9 2.4.4-4.3"/>
                    <path fill="#3D8DA6" d="M58.936 71.766l-1.982-2.383 2.383-1.983 1.982 2.384z"/>
                    <path opacity=".2" fill="#9DD1E0" d="M57 69.4l2 2.4.4-4.4"/>
                    <g>
                        <path fill="#3D8DA6" d="M56.557 68.847l-1.983-2.383 2.384-1.983 1.982 2.385z"/>
                        <path opacity=".2" fill="#9DD1E0" d="M54.6 66.5l2 2.3.4-4.3"/>
                    </g>
                    <g>
                        <path fill="#3D8DA6" d="M54.113 65.85L52.13 63.47l2.384-1.982 1.983 2.383z"/>
                        <path opacity=".2" fill="#9DD1E0" d="M52.1 63.5l2 2.4.4-4.4"/>
                    </g>
                </g>
                <g>
                    <path fill="#3D8DA6" d="M58.557 77.116l-1.983-2.383 2.383-1.983 1.983 2.384z"/>
                    <path opacity=".2" fill="#9DD1E0" d="M56.6 74.7l1.9 2.4.4-4.3"/>
                    <path fill="#3D8DA6" d="M56.113 74.12l-1.982-2.383 2.384-1.982 1.983 2.383z"/>
                    <path opacity=".2" fill="#9DD1E0" d="M54.1 71.8l2 2.4.4-4.4"/>
                    <g>
                        <path fill="#3D8DA6" d="M53.657 71.265l-1.982-2.383 2.383-1.982 1.982 2.383z"/>
                        <path opacity=".2" fill="#9DD1E0" d="M51.7 68.9l2 2.3.4-4.3"/>
                    </g>
                    <g>
                        <path fill="#3D8DA6" d="M51.214 68.27l-1.983-2.384 2.385-1.982 1.982 2.383z"/>
                        <path opacity=".2" fill="#9DD1E0" d="M49.2 65.9l2 2.4.4-4.4"/>
                    </g>
                </g>
            </g>
            <path fill="#3D8DA6" d="M29.644 72.79L22.8 64.564l6.382-5.308 6.843 8.226z"/>
            <path opacity=".1" fill="#FFF" d="M29.778 72.76l-6.842-8.226 3.075-2.558 6.843 8.226z"/>
            <g fill="#3D8DA6">
                <path d="M51.066 99.458l-4.22-5.074 2.613-2.175 4.22 5.073zM55.776 95.54l-4.22-5.074 2.613-2.174 4.22 5.074z"/>
            </g>
            <g>
                <path fill="#9DD1E0" d="M10.6 42.6l-.4.3-.4.4L18 54.9l1.3-1.1 1.2-1"/>
                <circle fill="#66B5CC" cx="9.8" cy="42.5" r="2.6"/>
            </g>
            <path fill="#9DD1E0" d="M0 62.5c7.2 8.7 20.1 9.8 28.7 2.6 8.7-7.2 9.8-20 2.6-28.7L0 62.5z"/>
            <path fill="#66B5CC" d="M33.3 39.3c-.6-1-1.2-2-2-2.9L0 62.5c.8.9 1.6 1.7 2.5 2.5l30.8-25.7zM31.076 77.288l-4.605-5.536 9.15-7.61 4.604 5.535z"/>
            <path fill="#66B5CC" d="M31.076 77.288l-4.605-5.536 9.15-7.61 4.604 5.535z"/>
            <path opacity=".1" d="M35.65 73.458l-4.606-5.535 4.536-3.773 4.605 5.535z"/>
            <path opacity=".1" fill="#265969" d="M35.65 73.458l-4.606-5.535 4.536-3.773 4.605 5.535z"/>
            <path fill="#66B5CC" d="M64.226 119.453l-8.633-10.38 11.3-9.4 8.634 10.38z"/>
            <path opacity=".1" fill="#265969" d="M69.906 114.64l-8.633-10.378 5.69-4.732 8.632 10.38z"/>
            <path fill="#9DD1E0" d="M38.4 65.5c.9-.7 2.2-.6 2.9.3l16.5 19.8c.7.9.6 2.2-.3 2.9l-11.1 9.3c-.9.7-2.2.6-2.9-.3L27 77.7c-.7-.9-.6-2.2.3-2.9l11.1-9.3zM60.1 91.6c.9-.7 2.2-.6 2.9.3l10.8 12.9c.7.9.6 2.2-.3 2.9L62.4 117c-.9.7-2.2.6-2.9-.3l-10.8-12.9c-.7-.9-.6-2.2.3-2.9l11.1-9.3z"/>
            <path opacity=".2" fill="#3D8DA6" d="M43.146 68.012l.767.923-14.3 11.894-.767-.923zM55.034 82.317l.767.923-14.3 11.895-.766-.923zM71.22 101.805l.768.923-14.3 11.895-.767-.923z"/>
            <path opacity=".6" fill="#CDEFFA" d="M3.9 59.3c7.2 8.7 18.3 11.3 24.8 5.9s5.9-16.8-1.3-25.5L3.9 59.3z"/>
            <path opacity=".4" fill="#E0F8FF" d="M9.9 54.3c7.2 8.7 15.6 13.5 18.8 10.9 3.2-2.6-.1-11.8-7.3-20.5L9.9 54.3z"/>
            <path opacity=".6" fill="#66B5CC" d="M33.3 39.3c-.6-1-1.2-2-2-2.9L0 62.5c.8.9 1.6 1.7 2.5 2.5l30.8-25.7z"/>
            <path opacity=".3" fill="#FFF" d="M32.8 70.2l-5.6 4.6c-.9.7-1 2-.3 2.9l16.5 19.8c.7.9 2 1 2.9.3l5.6-4.6-19.1-23zM54.6 96.3l-5.6 4.6c-.9.7-1 2-.3 2.9l10.8 12.9c.7.9 2 1 2.9.3l5.6-4.6-13.4-16.1z"/>
            <g>
                <circle fill="#FF456A" cx="45.2" cy="91.2" r="2.8"/>
                <circle fill="#3D8DA6" cx="40.5" cy="85.6" r="1.3"/>
                <circle fill="#3D8DA6" cx="36.8" cy="81.2" r="1.3"/>
            </g>
            <g>
                <circle fill="#3D8DA6" cx="57.6" cy="106.2" r="1.7"/>
                <path fill="#66B5CC" d="M64.7 97.4c.3-.2.7-.2.9.1l2.1 2.5c.2.3.2.7-.1.9l-3.4 2.8c-.3.2-.7.2-.9-.1l-2.1-2.5c-.2-.3-.2-.7.1-.9l3.4-2.8z"/>
            </g>
        </g>
        <g>
            <path fill="#B1CFDE" d="M977.6 225.2l-.3-.4-.2-.4-9.1 4.8.5.9.5.9"/>
            <ellipse transform="rotate(59.095 978.033 224.415)" fill="#FF1B4C" cx="978" cy="224.4" rx="1.5" ry="1.6"/>
            <path fill="#B1CFDE" d="M935.7 214.7l.5-.2.4-.3 5.8 8.5-.9.6-.9.5"/>
            <ellipse transform="rotate(149.095 935.787 213.812)" fill="#FF1B4C" cx="935.8" cy="213.8" rx="1.5" ry="1.6"/>
            <path fill="#CEEAF7" d="M968 225.8c-1.7 6.6-8.5 11-15.1 9.3-6.6-1.7-10.6-8.7-8.9-15.4 1.7-6.6 8.4-10.7 15.1-9 6.5 1.7 10.6 8.4 8.9 15.1z"/>
            <path opacity=".4" fill="#FFF" d="M946.3 215c.7.3 1.5.6 2.3.8 4.9 1.2 9.8-.6 12.7-4.3-.7-.3-1.5-.6-2.3-.8-4.9-1.2-9.8.6-12.7 4.3z"/>
            <circle fill="#FFF" cx="953.8" cy="215.3" r="2.5"/>
            <path fill="#FF1B4C" d="M968.8 224.1l-24.9-6.2c-1.1-.3-2.2.4-2.5 1.5l-.9 3.7 28.9 7.2.9-3.7c.3-1.1-.4-2.2-1.5-2.5z"/>
            <path fill="#4791B5" d="M970.2 227l-28.8-7.2c-1.3-.3-2.6.5-2.9 1.7l-1.2 4.7 33.4 8.4 1.2-4.7c.4-1.3-.4-2.6-1.7-2.9z"/>
            <ellipse transform="rotate(14.093 950.492 245.242)" fill="#FFCC54" cx="950.3" cy="245.2" rx="17.8" ry="12.1"/>
            <path fill="#4791B5" d="M934.1 249.1l28.7 7.2c1.3.3 2.6-.5 2.9-1.7l1.1-4.3-33.3-8.4-1.1 4.3c-.3 1.3.4 2.6 1.7 2.9z"/>
            <g>
                <path fill="#B1CFDE" d="M949.3 249.4c7 1.8-1-.2 0 0 0 0-.3-.1 0 0 1 .3-7.1-1.8 0 0 27.6 6.9 47-.1 47-.1l-44-11-.4-.1-44-11c0-.1 13.8 15.3 41.4 22.2z"/>
                <path opacity=".6" fill="#95BACC" d="M949.3 249.4c4.8 1.2-.7-.2 0 0 0 0-.2 0 0 0 .7.2-4.8-1.2 0 0 18.8 4.7 32.9-3.6 32.9-3.6l-30-7.5-.3-.1-30-7.5c.1 0 8.6 14 27.4 18.7z"/>
                <path fill="#B1CFDE" d="M949.3 249.4c1.8.5-.3-.1 0 0 0 0-.1 0 0 0 .2.1-1.9-.5 0 0 7.3 1.8 14.5-8.2 14.5-8.2l-11.7-2.9h-.1l-11.7-2.9c0-.1 1.6 12.2 9 14zM966.9 228.6c-7.3-1.8-10.4-2.6-11.4-2.9 0 0-.1 0-.4-.1-1-.3-4.1-1-11.4-2.9-28.6-7.2-37.1 2.9-37.1 2.9l45.6 11.5.4.1 45.6 11.5s-2.7-12.9-31.3-20.1z"/>
                <path opacity=".6" fill="#95BACC" d="M963 227.7c-4.9-1.2-6.9-1.7-7.6-1.9 0 0-.1 0-.3-.1-.7-.2-2.8-.7-7.6-1.9-19.1-4.8-25.7 5.8-25.7 5.8l30.5 7.7.3.1 30.5 7.7c-.2-.2-1-12.6-20.1-17.4z"/>
            </g>
            <path fill="#B1CFDE" d="M957.7 226.7c-1.6-.4-2.3-.6-2.5-.6h-.1c-.2-.1-.9-.2-2.5-.6-6.3-1.6-10.4 9.6-10.4 9.6l10.1 2.5h.1l10.1 2.5c-.1 0 1.5-11.8-4.8-13.4z"/>
            <g fill="#4791B5">
                <path d="M998.4 247c-.3 1.4-1.7 2.2-3.1 1.9L909 227.2c-1.4-.3-2.2-1.7-1.9-3.1.3-1.4 1.7-2.2 3.1-1.9l86.2 21.7c1.5.3 2.3 1.7 2 3.1z"/>
                <path d="M997.3 251.4c-.3 1.4-1.7 2.2-3.1 1.9L908 231.6c-1.4-.3-2.2-1.7-1.9-3.1.3-1.4 1.7-2.2 3.1-1.9l86.2 21.7c1.4.3 2.2 1.7 1.9 3.1z"/>
            </g>
            <path fill="#FF1B4C" d="M999.9 249.7c-.4 1.4-1.8 2.3-3.3 2L906.4 229c-1.4-.4-2.3-1.8-2-3.3.4-1.4 1.8-2.3 3.3-2l90.2 22.7c1.5.4 2.4 1.9 2 3.3z"/>
            <g>
                <circle fill="#FFD061" cx="907.8" cy="226.6" r="1.5"/>
                <circle fill="#FFF" cx="907.6" cy="226.2" r=".7"/>
                <circle fill="#FFD061" cx="914.6" cy="228.3" r="1.5"/>
                <circle fill="#FFF" cx="914.5" cy="227.9" r=".7"/>
                <circle fill="#FFD061" cx="921.5" cy="230" r="1.5"/>
                <circle fill="#FFF" cx="921.3" cy="229.6" r=".7"/>
                <circle fill="#FFD061" cx="928.3" cy="231.7" r="1.5"/>
                <circle fill="#FFF" cx="928.1" cy="231.3" r=".7"/>
                <circle fill="#FFD061" cx="935.2" cy="233.4" r="1.5"/>
                <circle fill="#FFF" cx="935" cy="233.1" r=".7"/>
                <circle fill="#FFD061" cx="942" cy="235.2" r="1.5"/>
                <circle fill="#FFF" cx="941.8" cy="234.8" r=".7"/>
                <circle fill="#FFD061" cx="948.8" cy="236.9" r="1.5"/>
                <circle fill="#FFF" cx="948.6" cy="236.5" r=".7"/>
                <g>
                    <circle fill="#FFD061" cx="955.7" cy="238.6" r="1.5"/>
                    <circle fill="#FFF" cx="955.5" cy="238.2" r=".7"/>
                </g>
                <g>
                    <circle fill="#FFD061" cx="962.5" cy="240.3" r="1.5"/>
                    <circle fill="#FFF" cx="962.3" cy="239.9" r=".7"/>
                </g>
                <g>
                    <circle fill="#FFD061" cx="969.3" cy="242" r="1.5"/>
                    <circle fill="#FFF" cx="969.1" cy="241.6" r=".7"/>
                </g>
                <g>
                    <circle fill="#FFD061" cx="976.2" cy="243.7" r="1.5"/>
                    <circle fill="#FFF" cx="976" cy="243.4" r=".7"/>
                </g>
                <g>
                    <circle fill="#FFD061" cx="983" cy="245.5" r="1.5"/>
                    <circle fill="#FFF" cx="982.8" cy="245.1" r=".7"/>
                </g>
                <g>
                    <circle fill="#FFD061" cx="989.9" cy="247.2" r="1.5"/>
                    <circle fill="#FFF" cx="989.7" cy="246.8" r=".7"/>
                </g>
                <g>
                    <circle fill="#FFD061" cx="996.7" cy="248.9" r="1.5"/>
                    <circle fill="#FFF" cx="996.5" cy="248.5" r=".7"/>
                </g>
            </g>
        </g>
    </symbol>

    <symbol id="cup_icon" viewBox="0 0 158 195">
        <path fill="#FDCB6A" d="M65.045 119.367l.06 32.84 26.89.233-.06-32.84"/>
        <path opacity=".2" fill="#7F200A" d="M65.132 118.397l-.092 10.408L92 132.927l.124-14.295M65.325 150.308l-.064-7.495 26.958-4.122.1 11.382"/>
        <path fill="#FFB533" d="M115.616 22.16l-.06 6.8 34.975.307c-.316 36.494-21.255 54.508-35.513 61.495l-.07 8.15s42.848-11.286 43.416-76.378c-31.088-.27-42.747-.373-42.747-.373z"/>
        <g opacity=".2">
            <path fill="#7F200A" d="M129.928 80.353c-5.057 4.77-10.33 8.163-14.91 10.41l-.07 8.148s5.83-1.538 13.216-6.742c1.095-3.755 1.714-7.715 1.764-11.815zM115.616 22.16l-.06 6.8c2.954.028 8.27.074 14.822.13l.06-6.8c-10.463-.09-14.822-.13-14.822-.13z"/>
        </g>
        <path fill="#FFB533" d="M42.753 21.526l-.062 6.8c-5.64-.048-19.86-.173-34.973-.304C7.4 64.516 28.02 82.892 42.154 90.128l-.072 8.15S-.564 86.245.005 21.152c31.09.27 42.748.373 42.748.373z"/>
        <g opacity=".2">
            <path fill="#7F200A" d="M27.43 79.46c4.97 4.857 10.182 8.342 14.725 10.667l-.072 8.15s-5.803-1.642-13.1-6.974c-1.027-3.774-1.576-7.744-1.554-11.843zM42.753 21.526l-.062 6.8c-2.95-.025-8.266-.07-14.82-.128l.06-6.8 14.823.128z"/>
        </g>
        <path fill="#FFB533" d="M34.824 10.77l-.598 68.585c-.212 24.362 19.365 44.283 43.726 44.496l.686.007c24.36.212 44.283-19.365 44.494-43.727l.6-68.586-88.908-.775z"/>
        <path opacity=".3" fill="#FFE18D" d="M51.714 79.51l.6-68.588-17.49-.153-.597 68.585c-.212 24.362 19.365 44.283 43.726 44.496l.686.007c2.874.026 5.682-.235 8.408-.734-20.31-4.102-35.522-22.125-35.334-43.613z"/>
        <path opacity=".1" fill="#7F200A" d="M119.844 11.51l-.41 47.213c-.214 24.36-20.135 43.938-44.496 43.726l-.687-.007c-17.907-.156-33.22-10.968-39.996-26.362l-.028 3.276c-.212 24.362 19.365 44.283 43.726 44.496l.686.006c24.36.212 44.283-19.365 44.494-43.727l.6-68.585-3.888-.035z"/>
        <path opacity=".07" fill="#7F200A" d="M35.24 15.63l88.407 5.63.142-16.516-88.45-.77"/>
        <path fill="#FFB533" d="M133.188 12.6l-107.844-.94.1-11.658L133.29.94zM118.42 185.216l-78.696-.685.33-37.89 78.696.684z"/>
        <path opacity=".1" fill="#7F200A" d="M118.417 185.22l-4.857-.04.326-37.893 4.857.04z"/>
        <path fill="#FFB533" d="M133.934 189.736h-.17c-.637-3.065-3.33-5.382-6.584-5.41l-96.182-.84c-3.257-.03-5.986 2.24-6.68 5.293l-.168-.002-.046 5.335 109.783.958.047-5.334z"/>
        <path opacity=".4" fill="#FFE18D" d="M57.493 184.684l-17.763-.157.333-37.89 17.763.156z"/>
        <path opacity=".1" fill="#7F200A" d="M133.886 195.07l.043-4.858-3.39-.03 3.31.03c-.443-3.3-3.247-5.857-6.67-5.887l-5.83-.052c3.427.03 6.23 2.59 6.672 5.888l.08.002-.044 4.858 5.828.05z"/>
        <path fill="#FFF" d="M106.836 176.37l-56.35-.49.186-21.375 56.35.49z"/>
        <path opacity=".4" fill="#FFE18D" d="M47.462 189.458l.05-5.828-16.515-.145c-3.425-.03-6.272 2.482-6.774 5.77h-.077l-.043 4.858 23.318.203.042-4.858z"/>
        <path fill="none" stroke="#FFF3E1" stroke-width="2.915" stroke-linecap="round" stroke-miterlimit="10" d="M42.908 38.976l.494 44.318s-.49 12.244 6.857 15.916M42.485 31.227l-.073-4.833"/>
    </symbol>

</defs>
</svg>