<svg viewBox="0 0 800 800" xmlns="http://www.w3.org/2000/svg" preserveAspectRatio="xMidYMin slice">
    <g class="starContainer">
        <circle cy="205" cx="309" r="0.7" style="opacity: 0.4; fill: rgb(222, 215, 222);"></circle><circle cy="146" cx="521" r="0.8" style="opacity: 0.5; fill: rgb(222, 215, 222);"></circle><circle cy="320" cx="309" r="0.8" style="opacity: 0.3; fill: rgb(222, 215, 222);"></circle><circle cy="27" cx="320" r="0.3" style="opacity: 0.5; fill: rgb(222, 215, 222);"></circle><circle cy="463" cx="413" r="0.7" style="opacity: 1; fill: rgb(222, 215, 222);"></circle><circle cy="377" cx="400" r="0.7" style="opacity: 0.2; fill: rgb(222, 215, 222);"></circle><circle cy="176" cx="13" r="0.5" style="opacity: 0.8; fill: rgb(222, 215, 222);"></circle><circle cy="547" cx="454" r="0.9" style="opacity: 0.2; fill: rgb(222, 215, 222);"></circle><circle cy="408" cx="345" r="0.3" style="opacity: 0.4; fill: rgb(222, 215, 222);"></circle><circle cy="148" cx="646" r="0.9" style="opacity: 0.3; fill: rgb(222, 215, 222);"></circle><circle cy="649" cx="255" r="0.6" style="opacity: 1; fill: rgb(222, 215, 222);"></circle><circle cy="321" cx="547" r="0.9" style="opacity: 0.5; fill: rgb(222, 215, 222);"></circle><circle cy="564" cx="419" r="0.3" style="opacity: 0.4; fill: rgb(222, 215, 222);"></circle><circle cy="609" cx="110" r="0.9" style="opacity: 0.6; fill: rgb(222, 215, 222);"></circle><circle cy="115" cx="67" r="0.7" style="opacity: 0.7; fill: rgb(222, 215, 222);"></circle><circle cy="224" cx="394" r="0.5" style="opacity: 0.9; fill: rgb(222, 215, 222);"></circle><circle cy="678" cx="492" r="1" style="opacity: 0.9; fill: rgb(222, 215, 222);"></circle><circle cy="231" cx="461" r="0.2" style="opacity: 0.4; fill: rgb(222, 215, 222);"></circle><circle cy="598" cx="676" r="0.2" style="opacity: 0.4; fill: rgb(222, 215, 222);"></circle><circle cy="527" cx="146" r="0.5" style="opacity: 0.7; fill: rgb(222, 215, 222);"></circle><circle cy="154" cx="311" r="0.8" style="opacity: 0.4; fill: rgb(222, 215, 222);"></circle><circle cy="405" cx="36" r="0.9" style="opacity: 1; fill: rgb(222, 215, 222);"></circle><circle cy="189" cx="455" r="0.6" style="opacity: 0.3; fill: rgb(222, 215, 222);"></circle><circle cy="29" cx="109" r="0.6" style="opacity: 0.4; fill: rgb(222, 215, 222);"></circle><circle cy="667" cx="189" r="1" style="opacity: 0.5; fill: rgb(222, 215, 222);"></circle><circle cy="295" cx="194" r="0.8" style="opacity: 0.4; fill: rgb(222, 215, 222);"></circle><circle cy="192" cx="769" r="0.2" style="opacity: 0.8; fill: rgb(222, 215, 222);"></circle><circle cy="600" cx="552" r="1" style="opacity: 0.6; fill: rgb(222, 215, 222);"></circle><circle cy="318" cx="313" r="0.6" style="opacity: 0.8; fill: rgb(222, 215, 222);"></circle><circle cy="386" cx="597" r="0.7" style="opacity: 0.8; fill: rgb(222, 215, 222);"></circle><circle cy="102" cx="12" r="0.7" style="opacity: 0.2; fill: rgb(222, 215, 222);"></circle><circle cy="136" cx="75" r="0.8" style="opacity: 0.5; fill: rgb(222, 215, 222);"></circle><circle cy="512" cx="569" r="0.4" style="opacity: 0.5; fill: rgb(222, 215, 222);"></circle><circle cy="364" cx="277" r="0.8" style="opacity: 0.8; fill: rgb(222, 215, 222);"></circle><circle cy="555" cx="357" r="0.4" style="opacity: 0.4; fill: rgb(222, 215, 222);"></circle><circle cy="23" cx="419" r="0.9" style="opacity: 1; fill: rgb(222, 215, 222);"></circle><circle cy="510" cx="198" r="0.9" style="opacity: 0.2; fill: rgb(222, 215, 222);"></circle><circle cy="217" cx="653" r="0.2" style="opacity: 0.9; fill: rgb(222, 215, 222);"></circle><circle cy="148" cx="59" r="1" style="opacity: 0.6; fill: rgb(222, 215, 222);"></circle><circle cy="447" cx="657" r="0.8" style="opacity: 0.2; fill: rgb(222, 215, 222);"></circle><circle cy="161" cx="237" r="0.3" style="opacity: 0.6; fill: rgb(222, 215, 222);"></circle><circle cy="409" cx="226" r="0.2" style="opacity: 0.4; fill: rgb(222, 215, 222);"></circle><circle cy="260" cx="220" r="0.8" style="opacity: 0.3; fill: rgb(222, 215, 222);"></circle><circle cy="541" cx="338" r="0.3" style="opacity: 0.2; fill: rgb(222, 215, 222);"></circle><circle cy="146" cx="235" r="1" style="opacity: 1; fill: rgb(222, 215, 222);"></circle><circle cy="146" cx="727" r="0.2" style="opacity: 0.2; fill: rgb(222, 215, 222);"></circle><circle cy="81" cx="407" r="0.3" style="opacity: 0.3; fill: rgb(222, 215, 222);"></circle><circle cy="156" cx="378" r="0.2" style="opacity: 0.7; fill: rgb(222, 215, 222);"></circle><circle cy="608" cx="298" r="0.9" style="opacity: 0.2; fill: rgb(222, 215, 222);"></circle><circle cy="566" cx="398" r="0.7" style="opacity: 1; fill: rgb(222, 215, 222);"></circle><circle cy="278" cx="273" r="0.2" style="opacity: 1; fill: rgb(222, 215, 222);"></circle><circle cy="37" cx="623" r="0.3" style="opacity: 1; fill: rgb(222, 215, 222);"></circle><circle cy="640" cx="8" r="0.8" style="opacity: 0.2; fill: rgb(222, 215, 222);"></circle><circle cy="554" cx="772" r="0.4" style="opacity: 0.7; fill: rgb(222, 215, 222);"></circle><circle cy="445" cx="699" r="0.3" style="opacity: 0.8; fill: rgb(222, 215, 222);"></circle><circle cy="281" cx="73" r="0.4" style="opacity: 0.2; fill: rgb(222, 215, 222);"></circle><circle cy="465" cx="268" r="1" style="opacity: 0.3; fill: rgb(222, 215, 222);"></circle><circle cy="663" cx="601" r="1" style="opacity: 0.5; fill: rgb(222, 215, 222);"></circle><circle cy="58" cx="639" r="0.9" style="opacity: 0.4; fill: rgb(222, 215, 222);"></circle><circle cy="302" cx="66" r="0.5" style="opacity: 0.5; fill: rgb(222, 215, 222);"></circle><circle cy="124" cx="192" r="0.4" style="opacity: 0.4; fill: rgb(222, 215, 222);"></circle><circle cy="86" cx="668" r="0.6" style="opacity: 0.7; fill: rgb(222, 215, 222);"></circle><circle cy="175" cx="74" r="0.2" style="opacity: 1; fill: rgb(222, 215, 222);"></circle><circle cy="356" cx="411" r="1" style="opacity: 0.4; fill: rgb(222, 215, 222);"></circle><circle cy="675" cx="67" r="0.9" style="opacity: 0.7; fill: rgb(222, 215, 222);"></circle><circle cy="474" cx="172" r="0.6" style="opacity: 0.4; fill: rgb(222, 215, 222);"></circle><circle cy="252" cx="456" r="0.8" style="opacity: 0.9; fill: rgb(222, 215, 222);"></circle><circle cy="587" cx="667" r="1" style="opacity: 0.5; fill: rgb(222, 215, 222);"></circle><circle cy="182" cx="617" r="0.4" style="opacity: 1; fill: rgb(222, 215, 222);"></circle><circle cy="217" cx="268" r="0.3" style="opacity: 0.6; fill: rgb(222, 215, 222);"></circle><circle cy="74" cx="29" r="0.3" style="opacity: 0.3; fill: rgb(222, 215, 222);"></circle><circle cy="570" cx="240" r="1" style="opacity: 1; fill: rgb(222, 215, 222);"></circle><circle cy="389" cx="503" r="0.6" style="opacity: 0.2; fill: rgb(222, 215, 222);"></circle><circle cy="536" cx="118" r="0.7" style="opacity: 0.4; fill: rgb(222, 215, 222);"></circle><circle cy="65" cx="600" r="0.6" style="opacity: 0.8; fill: rgb(222, 215, 222);"></circle><circle cy="660" cx="570" r="1" style="opacity: 0.5; fill: rgb(222, 215, 222);"></circle><circle cy="541" cx="211" r="0.2" style="opacity: 0.9; fill: rgb(222, 215, 222);"></circle><circle cy="583" cx="597" r="0.3" style="opacity: 0.2; fill: rgb(222, 215, 222);"></circle><circle cy="633" cx="692" r="0.8" style="opacity: 0.2; fill: rgb(222, 215, 222);"></circle><circle cy="2" cx="633" r="1" style="opacity: 0.4; fill: rgb(222, 215, 222);"></circle><circle cy="286" cx="785" r="0.2" style="opacity: 0.3; fill: rgb(222, 215, 222);"></circle><circle cy="101" cx="79" r="0.4" style="opacity: 0.7; fill: rgb(222, 215, 222);"></circle><circle cy="330" cx="6" r="0.3" style="opacity: 0.7; fill: rgb(222, 215, 222);"></circle><circle cy="480" cx="263" r="0.6" style="opacity: 0.8; fill: rgb(222, 215, 222);"></circle><circle cy="205" cx="136" r="0.9" style="opacity: 0.3; fill: rgb(222, 215, 222);"></circle><circle cy="161" cx="474" r="1" style="opacity: 1; fill: rgb(222, 215, 222);"></circle><circle cy="531" cx="784" r="1" style="opacity: 0.7; fill: rgb(222, 215, 222);"></circle><circle cy="103" cx="355" r="0.4" style="opacity: 0.7; fill: rgb(222, 215, 222);"></circle><circle cy="580" cx="422" r="0.3" style="opacity: 0.6; fill: rgb(222, 215, 222);"></circle><circle cy="379" cx="464" r="0.9" style="opacity: 0.5; fill: rgb(222, 215, 222);"></circle><circle cy="26" cx="424" r="0.7" style="opacity: 0.9; fill: rgb(222, 215, 222);"></circle><circle cy="205" cx="396" r="0.5" style="opacity: 0.3; fill: rgb(222, 215, 222);"></circle><circle cy="167" cx="385" r="0.5" style="opacity: 0.9; fill: rgb(222, 215, 222);"></circle><circle cy="380" cx="659" r="1" style="opacity: 0.4; fill: rgb(222, 215, 222);"></circle><circle cy="113" cx="758" r="0.9" style="opacity: 1; fill: rgb(222, 215, 222);"></circle><circle cy="61" cx="668" r="0.4" style="opacity: 0.3; fill: rgb(222, 215, 222);"></circle><circle cy="549" cx="407" r="0.2" style="opacity: 0.3; fill: rgb(222, 215, 222);"></circle><circle cy="46" cx="754" r="0.4" style="opacity: 0.8; fill: rgb(222, 215, 222);"></circle><circle cy="586" cx="591" r="0.7" style="opacity: 1; fill: rgb(222, 215, 222);"></circle><circle cy="5" cx="589" r="0.6" style="opacity: 0.5; fill: rgb(222, 215, 222);"></circle></g>
</svg>